<svg width="343" height="268" viewBox="0 0 343 268" fill="none" xmlns="http://www.w3.org/2000/svg">
<path d="M216.082 101.918C215.514 102.519 214.98 103.085 214.389 103.712C215.423 105.029 216.29 106.703 217.945 107.094C218.264 107.17 218.576 107.459 218.841 107.731C224.593 113.603 230.859 118.423 237.316 122.869C239.06 124.069 240.632 125.676 242.36 126.92C243.666 127.861 245.093 128.524 246.467 129.306C247.547 129.921 248.622 130.551 249.711 131.138C250.579 131.606 251.445 132.115 252.348 132.434C253.468 132.829 254.63 133.021 255.764 133.354C256.427 133.548 257.15 133.729 257.357 134.769C257.432 135.149 257.465 135.593 257.385 135.96C257.271 136.488 257.062 136.991 256.849 137.472C255.767 139.909 254.695 142.355 253.567 144.756C253.169 145.603 252.692 146.434 252.128 147.097C250.279 149.266 248.356 151.332 246.494 153.483C245.148 155.039 243.849 156.664 242.537 158.269C241.224 159.874 239.981 161.586 238.592 163.072C237.712 164.013 236.656 164.721 235.615 165.362C234.624 165.973 233.894 166.775 233.521 168.131C232.902 170.376 231.697 171.791 229.924 172.561C228.336 173.25 226.82 174.206 225.263 175.011C222.55 176.413 219.694 177.003 216.804 177.249C212.029 177.654 207.249 177.98 202.469 178.277C200.46 178.402 198.472 178.122 196.51 177.463C194.572 176.813 192.607 176.291 190.653 175.723C190.541 175.691 190.378 175.695 190.299 175.778C189.871 176.226 189.461 176.705 188.905 177.331C190.751 177.989 192.42 178.716 194.133 179.171C199.636 180.631 205.199 180.9 210.804 180.518C213.534 180.332 216.278 180.543 219.015 180.5C219.89 180.487 220.791 180.372 221.63 180.071C223.911 179.253 226.169 178.328 228.426 177.401C228.825 177.237 229.221 176.933 229.536 176.574C231.29 174.575 233.152 172.702 234.111 169.791C234.553 168.448 235.374 167.638 236.485 167.176C237.855 166.605 239.174 165.829 240.513 165.139C240.633 165.077 240.761 165.017 240.86 164.917C243.083 162.653 245.515 160.68 247.008 157.412C247.555 156.215 248.14 155.043 248.765 153.913C249.071 153.358 249.453 152.813 249.894 152.453C251.398 151.225 253.023 150.35 254.792 149.952C255.167 149.868 255.6 149.774 255.878 149.482C256.933 148.377 258.073 147.447 258.829 145.849C260.53 142.254 262.672 139.079 264.972 136.094C265.753 135.081 266.466 134.061 266.88 132.681C267.111 131.91 267.573 131.203 268.039 130.608C271.243 126.524 274.471 122.469 277.707 118.426C278.105 117.93 278.576 117.512 279.055 117.15C280.479 116.074 281.81 114.899 282.567 112.897C282.72 112.492 283.014 112.136 283.303 111.865C284.525 110.721 285.444 109.235 286.01 107.473C286.883 104.753 288.127 102.326 289.289 99.8225C290.026 98.2374 290.714 96.5389 291.092 94.7726C291.663 92.1065 292.505 89.6368 293.65 87.3398C295.178 84.2728 296.244 80.9239 297.238 77.5537C299.337 70.4326 302.857 64.8624 307.796 60.7405C308.61 60.0609 309.416 59.3641 310.242 58.7095C311.401 57.7907 312.305 56.5467 313.143 55.1843C314.222 53.4321 315.39 51.7976 317.197 51.2827C317.363 51.2357 317.538 51.1583 317.675 51.0344C319.135 49.7251 320.717 49.6263 322.436 49.9393C324.866 50.3816 326.775 48.8588 327.775 45.9535C328.538 43.737 328.867 41.3515 328.522 39.0221C328.044 35.7794 328.577 33.095 330.203 30.5789C331.522 28.5357 332.672 26.307 333.874 24.1399C334.76 22.5432 335.953 21.8599 337.448 22.0112C338.752 22.143 340.054 22.3004 341.407 22.4523C341.124 19.3225 340.832 16.0877 340.532 12.7621C338.756 12.5638 336.932 12.1983 335.214 13.4045C333.188 14.826 331.125 16.1713 329.169 17.7411C328.241 18.4861 327.427 19.5708 326.735 20.6812C324.436 24.3699 322.435 28.3111 320.611 32.4348C318.862 36.3883 316.84 40.1471 314.858 43.9212C313.031 47.3982 310.416 49.6977 307.564 51.5908C306.74 52.1381 305.882 52.6298 305.123 53.304C304.226 54.1014 303.295 54.9317 302.601 55.9903C301.229 58.0805 299.793 60.0572 298.131 61.7631C296.447 63.4915 295.231 65.6842 294.244 68.1392C293.722 69.4351 293.118 70.7261 292.368 71.8072C290.865 73.9736 290.066 76.4202 289.884 79.3151C289.405 86.9371 287.398 93.8971 284.1 100.216C283.093 102.143 281.871 103.892 280.68 105.646C278.72 108.533 276.633 111.28 274.731 114.226C272.118 118.276 268.796 121.049 265.251 123.466C263.632 124.57 262.005 125.714 260.145 125.974C259.081 126.123 257.971 126.311 256.934 126.086C254.543 125.565 252.155 125.317 249.733 125.35C245.999 125.402 242.601 123.911 239.483 121.335C236.336 118.736 233.062 116.44 229.697 114.354C227.342 112.895 225.391 110.672 223.293 108.729C223.1 108.551 222.928 108.335 222.729 108.168C221.309 106.974 219.853 105.845 218.473 104.578C217.601 103.779 216.842 102.775 216.082 101.918Z" fill="#FDF5E5"/>
<path d="M257.532 148.516C257.298 148.785 257.063 149.053 256.828 149.322C256.217 150.023 255.526 150.454 254.698 150.604C253.052 150.901 251.539 151.727 250.142 152.858C249.702 153.214 249.33 153.776 249.026 154.334C248.383 155.516 247.792 156.747 247.205 157.978C246.555 159.343 245.77 160.537 244.787 161.529C243.904 162.419 243.107 163.457 242.195 164.288C241.302 165.1 240.337 165.801 239.355 166.422C238.43 167.008 237.455 167.478 236.476 167.903C235.722 168.231 235.134 168.779 234.706 169.619C234.327 170.362 234.019 171.171 233.601 171.873C233.067 172.767 232.476 173.61 231.869 174.425C231.273 175.224 230.672 176.04 229.987 176.698C229.338 177.321 228.471 177.604 227.896 178.303C227.353 178.963 227.192 180.157 226.639 180.791C225.111 182.546 223.908 184.642 222.615 186.649C220.997 189.161 218.845 190.768 216.711 192.402C215.192 193.566 213.656 194.695 212.149 195.885C210.914 196.861 209.521 197.071 208.148 197.425C206.376 197.883 204.591 198.295 202.853 198.917C201.958 199.237 201.096 199.86 200.317 200.533C197.147 203.269 193.614 204.369 189.868 204.625C186.66 204.844 183.455 205.119 180.246 205.328C178.797 205.423 177.7 206.158 176.959 207.813C176.323 209.233 175.57 210.566 174.944 211.992C173.753 214.702 172.13 216.828 170.016 218.327C167.297 220.253 164.659 222.477 161.593 223.348C158.862 224.123 156.084 224.738 153.301 225.072C150.438 225.415 147.606 225.928 144.797 226.675C142.868 227.189 140.962 227.187 139.015 226.812C136.95 226.415 134.864 226.187 132.784 225.929C129.656 225.54 126.577 224.887 123.721 223.09C121.787 221.874 119.77 221.626 117.669 221.967C116.046 222.231 114.47 221.934 112.868 221.485C111.413 221.078 109.885 221.047 108.386 220.978C106.69 220.9 105.148 220.47 103.716 219.149C101.502 217.106 99.0521 215.706 96.3023 215.254C95.6949 215.154 95.1021 214.684 94.551 214.276C93.3027 213.349 92.1068 212.304 90.8494 211.401C89.1375 210.173 87.2453 210.262 85.197 210.29C85.4113 210.43 85.4727 210.491 85.5418 210.511C87.7538 211.179 89.7151 212.562 91.6881 213.956C93.06 214.925 94.4981 215.802 95.9797 216.434C97.9783 217.287 99.8766 218.366 101.711 219.679C103.53 220.982 105.409 222.156 107.55 222.137C109.191 222.123 110.759 222.51 112.322 223.089C114.075 223.738 115.871 223.959 117.697 223.887C118.984 223.835 120.168 224.226 121.355 224.992C124.07 226.744 126.85 228.19 129.986 228.415C132.316 228.582 134.623 229.329 136.934 229.857C138.966 230.321 140.998 230.41 143.053 230.17C145.308 229.907 147.57 229.758 149.827 229.529C154.323 229.072 158.716 227.911 162.926 225.838C164.726 224.952 166.344 223.466 168.122 222.485C171.964 220.364 174.818 216.785 177.291 212.592C177.84 211.663 178.37 210.714 178.881 209.751C179.415 208.744 180.162 208.333 181.076 208.248C184.946 207.889 188.817 207.543 192.681 207.113C193.615 207.009 194.569 206.744 195.446 206.32C198.25 204.964 201.063 203.608 203.592 201.476C204.911 200.365 206.378 199.886 207.927 199.729C209.937 199.525 211.916 199.119 213.764 198.019C217.929 195.542 221.976 192.836 225.198 188.468C226.058 187.302 226.989 186.208 227.964 185.204C228.559 184.59 229.27 184.118 229.979 183.742C231.552 182.908 232.681 181.621 233.097 179.411C233.48 177.375 234.573 175.988 235.799 174.76C237.467 173.088 239.189 171.504 240.827 169.785C243.056 167.445 245.12 164.867 246.913 161.967C248.94 158.689 251.352 156.071 254.384 154.507C255.606 153.877 256.348 152.817 256.755 151.24C256.989 150.335 257.332 149.477 257.627 148.597C257.596 148.572 257.564 148.544 257.532 148.516Z" fill="#FDF5E5"/>
<path d="M172.648 160.355C172.694 161.668 172.732 162.981 172.789 164.294C172.818 164.959 172.922 165.624 172.905 166.285C172.898 166.576 172.672 166.857 172.545 167.144C172.406 166.873 172.15 166.604 172.147 166.331C172.129 164.611 172.164 162.89 172.189 161.17C172.193 160.872 172.23 160.573 172.256 160.228C172.032 160.188 171.849 160.155 171.622 160.115C171.261 161.811 170.586 163.402 171.091 165.223C171.145 165.418 171.149 165.687 171.087 165.871C171.011 166.097 170.84 166.27 170.71 166.466C170.562 166.268 170.281 166.062 170.287 165.873C170.33 164.637 170.398 163.397 170.534 162.173C170.609 161.503 170.835 160.861 171.065 159.906C170.462 159.997 170.02 159.999 169.606 160.14C168.837 160.403 168.082 160.74 167.327 161.066C167.194 161.124 167.078 161.268 166.97 161.395C166.353 162.118 165.725 162.827 165.13 163.58C164.381 164.528 163.633 165.482 162.934 166.491C162.376 167.297 161.916 168.216 161.37 169.038C160.58 170.228 159.581 171.054 158.41 171.461C157.277 171.855 156.782 172.789 156.784 174.254C156.786 175.726 156.7 177.207 156.8 178.667C156.85 179.382 157.086 180.306 157.493 180.715C160.949 184.192 164.756 186.199 169.211 184.569C170.176 184.216 171.08 183.459 171.928 182.727C172.801 181.974 173.561 181.006 174.389 180.163C176.828 177.681 177.23 174.066 175.397 170.817C174.82 169.793 174.57 168.646 174.434 167.414C174.37 166.838 174.131 166.297 174.007 165.727C173.769 164.637 173.543 163.54 173.337 162.438C173.204 161.727 173.115 161.002 173.007 160.284C172.886 160.307 172.767 160.331 172.648 160.355Z" fill="#FDF5E5"/>
<path d="M174.741 160.301C175.205 161.023 175.694 161.721 176.125 162.474C176.493 163.118 176.814 163.812 177.111 164.516C177.177 164.674 177.112 165.064 177.005 165.164C176.904 165.258 176.608 165.187 176.503 165.053C176.247 164.725 176.036 164.331 175.834 163.942C175.201 162.718 174.581 161.483 173.951 160.257C173.9 160.157 173.807 160.093 173.641 159.909C173.646 160.194 173.622 160.345 173.656 160.469C174.036 161.856 174.466 163.224 174.792 164.632C174.916 165.168 174.778 165.797 174.812 166.378C174.892 167.74 174.949 169.154 175.65 170.257C176.97 172.337 177.161 174.664 176.743 177.178C176.625 177.884 177.607 179.104 178.356 179.181C178.59 179.205 178.829 179.14 179.066 179.147C180.14 179.174 181.231 179.069 182.284 179.279C183.881 179.597 185.302 179.113 186.726 178.272C188.115 177.452 189.3 176.289 190.344 174.895C191.59 173.232 192.172 171.191 191.908 168.886C191.693 167.021 191.406 165.154 191.005 163.342C190.514 161.115 189.326 159.587 187.616 158.706C187.825 159.051 188.041 159.39 188.244 159.741C189.098 161.228 189.026 161.867 188.073 163.221C186.796 165.034 185.275 166.417 183.513 167.207C181.836 167.96 180.172 167.402 178.868 165.902C177.853 164.734 177.06 163.243 176.172 161.892C175.766 161.275 175.366 160.651 174.964 160.03C174.889 160.121 174.815 160.211 174.741 160.301Z" fill="#FDF5E5"/>
<path d="M146.983 189.681C145.408 193.516 142.858 195.691 139.727 197.125C140.045 197.995 140.346 198.874 140.685 199.727C141.145 200.889 141.638 202.03 142.112 203.184C143.216 205.871 145.011 207.705 146.852 209.448C147.566 210.123 148.424 210.259 149.309 209.722C149.627 209.529 150.068 209.526 150.427 209.612C152.344 210.068 153.613 209.3 154.273 206.969C154.786 205.154 155.164 203.267 155.509 201.384C155.8 199.795 155.416 198.414 154.524 197.207C153.178 195.389 151.739 193.738 150.085 192.394C149.016 191.524 147.99 190.566 146.983 189.681Z" fill="#FDF5E5"/>
<path d="M198.527 134.628C199.564 135.482 200.163 136.49 200.133 137.992C200.129 138.174 200.358 138.356 200.466 138.551C200.775 139.109 201.117 139.648 201.36 140.252C201.439 140.447 201.251 140.82 201.185 141.112C200.995 140.976 200.738 140.901 200.629 140.694C200.356 140.178 200.15 139.602 199.902 139.014C199.412 139.518 199 139.942 198.623 140.33C198.829 141.148 199.053 141.925 199.205 142.724C199.249 142.953 199.083 143.248 199.013 143.513C198.884 143.325 198.709 143.164 198.633 142.946C198.387 142.239 198.177 141.511 197.953 140.792C197.886 140.768 197.819 140.745 197.752 140.721C197.699 140.94 197.592 141.163 197.603 141.375C197.634 141.954 197.789 142.538 197.746 143.099C197.723 143.394 197.387 143.647 197.193 143.92C197.158 143.606 197.093 143.291 197.096 142.977C197.101 142.445 197.149 141.914 197.192 141.162C195.661 142.068 194.636 143.738 192.839 143.741C192.967 144.596 192.999 145.4 193.208 146.116C194.295 149.834 196.131 152.892 198.349 155.599C198.768 156.11 199.239 156.223 199.781 155.968C200.125 155.806 200.489 155.716 200.83 155.55C201.376 155.284 201.854 155.358 202.361 155.764C203.127 156.377 203.316 156.348 203.927 155.51C204.47 154.766 204.969 153.962 205.441 153.139C205.965 152.224 206.484 151.295 206.919 150.308C207.824 148.257 207.861 146.098 207.323 143.864C206.263 139.455 204.069 136.568 200.598 135.331C199.996 135.116 199.403 134.858 198.806 134.622C198.769 134.606 198.724 134.621 198.527 134.628Z" fill="#FDF5E5"/>
<path d="M325.946 66.0312C325.862 67.864 325.185 69.1489 324.075 70.0805C323.512 70.5527 323.331 70.4405 323.247 69.582C323.143 68.5089 323.051 67.4333 322.937 66.1679C322.549 66.2979 322.069 66.3387 321.691 66.6127C321.059 67.0709 320.413 67.5797 319.909 68.2404C318.613 69.9396 317.32 71.6527 316.717 74.0157C315.879 77.3072 317.085 81.0501 319.52 82.4705C319.742 82.6004 320.134 82.5711 320.328 82.396C320.797 81.972 321.121 82.0226 321.37 82.6687C321.647 83.3844 322.104 83.7212 322.693 83.8462C323.161 83.9451 323.636 84.0226 324.087 84.1989C325.151 84.6144 326.014 84.1922 326.83 83.3106C327.586 82.4924 328.389 81.745 329.18 80.9806C329.947 80.2393 330.267 79.1704 330.365 78.0259C330.617 75.087 330.296 72.214 329.193 69.6254C328.749 68.5858 327.885 67.8292 327.17 67.005C326.84 66.6243 326.408 66.3912 325.946 66.0312Z" fill="#FDF5E5"/>
<path d="M143.302 127.544C144.48 127.273 145.582 127.029 146.68 126.757C146.838 126.718 146.974 126.538 147.123 126.428C148.281 125.572 149.452 124.746 150.593 123.855C151.727 122.968 151.794 122.327 151.211 120.925C150.645 119.562 150.209 118.11 149.634 116.753C149.175 115.67 148.404 114.96 147.486 114.629C146.082 114.123 144.676 113.593 143.244 113.264C140.955 112.738 138.994 113.605 137.472 115.944C136.904 116.816 136.355 117.711 135.745 118.529C134.543 120.141 134.465 122.023 134.874 124.034C134.936 124.338 135.095 124.664 135.283 124.862C136.852 126.509 138.471 127.994 140.668 127.704C141.566 127.584 142.474 127.591 143.302 127.544Z" fill="#FDF5E5"/>
<path d="M176.035 123.91C175.845 123.419 175.522 123.328 175.079 123.644C174.76 123.872 174.422 124.065 174.077 124.215C173.92 124.283 173.726 124.21 173.549 124.201C173.582 123.947 173.545 123.592 173.661 123.461C173.99 123.09 174.381 122.81 174.853 122.403C174.297 122.247 173.815 122.146 173.352 121.965C173.159 121.89 173.005 121.646 172.834 121.478C173.021 121.323 173.196 121.084 173.398 121.035C173.662 120.971 173.947 121.06 174.272 121.087C173.887 119.694 173.51 118.329 173.063 116.712C172.229 116.837 171.27 116.912 170.332 117.138C168.705 117.529 167.092 118.019 165.471 118.458C164.587 118.697 163.801 120.111 163.858 121.34C163.937 123.029 163.943 124.725 164.077 126.406C164.233 128.349 164.708 130.102 166.244 131.001C166.496 131.149 166.761 131.342 166.935 131.607C168.249 133.622 170.102 134.172 171.954 134.735C172.667 134.953 173.256 134.716 173.771 134.027C174.082 133.61 174.447 133.247 174.819 132.921C176.838 131.157 177.563 130.056 178.58 127.12C177.994 126.342 177.401 125.553 176.731 124.663C176.427 125.185 176.188 125.669 175.888 126.082C175.74 126.287 175.481 126.359 175.272 126.491C175.232 126.187 175.086 125.815 175.172 125.593C175.397 125.012 175.724 124.497 176.035 123.91Z" fill="#FDF5E5"/>
<path d="M286.815 112.083C285.859 114.311 284.165 115.091 282.529 115.598C281.065 116.051 280.21 116.944 280.044 118.759C279.884 120.51 279.858 122.295 279.898 124.059C279.927 125.304 280.476 126.174 281.493 126.447C281.849 126.542 282.225 126.662 282.529 126.903C284.473 128.444 286.676 128.189 288.802 128.455C289.657 128.562 290.233 128.061 290.533 126.989C291.096 124.978 291.709 122.99 292.268 120.977C292.642 119.63 292.338 118.227 291.455 117.321C290.619 116.465 289.716 115.719 288.871 114.878C288.399 114.407 287.965 113.864 287.551 113.308C287.261 112.919 287.033 112.452 286.815 112.083Z" fill="#FDF5E5"/>
<path d="M125.601 175.366C124.952 174.003 125.21 172.678 125.916 171.349C126.362 170.509 126.675 169.551 127.048 168.646C126.884 168.603 126.569 168.553 126.271 168.435C125.647 168.189 125.489 167.756 125.722 166.971C126.143 165.546 126.985 164.716 128.104 164.425C128.88 164.223 129.763 164.445 130.457 164.056C131.14 163.674 131.601 162.679 132.239 162.099C133.639 160.826 134.527 159.757 135.226 158.222C134.51 159.056 133.873 159.85 133.19 160.574C132.828 160.957 132.396 161.24 131.976 161.517C131.859 161.594 131.671 161.492 131.515 161.471C131.587 161.3 131.626 161.073 131.736 160.966C132.864 159.866 134.004 158.784 135.141 157.698C135.095 157.586 135.048 157.475 135.001 157.362C134.612 157.608 134.211 157.83 133.835 158.105C132.881 158.803 131.937 159.526 130.989 160.236C130.915 160.291 130.821 160.373 130.752 160.352C130.562 160.299 130.38 160.197 130.195 160.115C130.297 159.902 130.361 159.588 130.508 159.494C131.143 159.09 131.81 158.77 132.451 158.378C132.775 158.179 133.066 157.892 133.347 157.523C132.441 157.531 131.516 157.264 130.69 157.906C129.92 158.504 129.19 159.189 128.387 159.751C128.448 158.749 129.166 158.47 129.605 157.851C128.576 157.347 128.064 158.758 127.129 158.758C127.295 158.445 127.461 158.132 127.627 157.819C126.463 157.551 125.304 157.231 124.134 157.035C123.5 156.93 122.928 157.177 122.583 158.032C122.055 159.338 121.471 160.606 120.905 161.885C120.777 162.174 120.649 162.474 120.478 162.72C119.16 164.614 119.071 166.777 119.51 169.136C119.674 170.02 119.579 170.985 119.587 171.914C119.591 172.465 119.492 173.033 119.566 173.564C119.761 174.971 120.439 175.943 121.516 175.933C122.868 175.922 124.219 175.574 125.601 175.366Z" fill="#FDF5E5"/>
<path d="M134.047 156.73C133.898 156.249 133.784 155.88 133.67 155.512C133.734 155.462 133.798 155.412 133.862 155.363C134.018 155.649 134.229 155.909 134.319 156.226C134.457 156.714 134.683 156.861 135.056 156.791C135.481 156.711 135.92 156.706 136.329 156.559C136.469 156.509 136.65 156.093 136.615 155.905C136.54 155.491 136.396 155.051 136.18 154.735C134.26 151.928 132.01 149.795 129.11 148.948C127.894 148.593 126.697 148.116 125.51 147.624C123.619 146.844 121.691 146.521 119.712 146.645C118.916 146.695 118.119 146.72 117.323 146.761C116.538 146.801 116.28 147.251 116.619 148.156C117.395 150.235 118.228 152.273 119.511 153.94C120.246 154.896 121.098 155.541 122.114 155.848C125.38 156.837 128.663 157.53 132.035 156.893C132.669 156.774 133.317 156.786 134.047 156.73Z" fill="#FDF5E5"/>
<path d="M286.962 111.442C287.309 112.027 287.602 112.542 287.911 113.039C288.1 113.341 288.282 113.673 288.521 113.894C289.844 115.117 291.176 116.323 292.519 117.509C293.047 117.975 293.643 118.063 294.251 117.778C295.85 117.03 297.453 116.296 299.04 115.509C300.015 115.026 300.744 114.121 301.325 113.015C301.648 112.398 301.74 111.783 301.265 111.22C300.761 110.624 300.237 110.056 299.733 109.46C299.137 108.754 298.455 108.123 297.982 107.297C296.594 104.87 294.861 103.507 292.462 103.261C291.251 103.136 290.643 103.534 290.085 104.81C289.103 107.056 288.014 109.227 286.962 111.442Z" fill="#FDF5E5"/>
<path d="M279.731 105.966C282.071 103.018 284.022 99.6857 285.498 95.9007C285.561 95.7365 285.608 95.5126 285.577 95.343C285.234 93.5084 285.026 91.5592 283.8 90.2767C282.668 89.0925 281.487 87.976 280.271 86.9401C279.59 86.3599 279.274 86.5045 278.854 87.4697C278.045 89.3299 277.206 91.184 276.548 93.1351C275.167 97.2331 276.692 103.451 279.588 105.909C279.622 105.939 279.669 105.942 279.731 105.966Z" fill="#FDF5E5"/>
<path d="M175.604 153.777C176.08 154.048 176.566 154.319 177.047 154.6C177.361 154.783 177.709 154.919 177.97 155.191C178.279 155.513 178.51 155.959 178.776 156.351C178.447 156.661 178.144 157.043 177.782 157.259C177.46 157.452 177.074 157.498 176.711 157.547C175.752 157.678 175.137 158.465 174.48 159.39C175.607 159.727 176.113 160.825 176.713 161.859C177.456 163.141 178.216 164.48 179.173 165.466C180.623 166.959 182.258 167.449 184.098 166.263C185.556 165.324 186.801 164.111 187.913 162.617C188.524 161.795 188.573 161.374 188.083 160.418C187.836 159.936 187.55 159.463 187.218 159.078C185.936 157.593 184.643 156.123 183.326 154.69C182.244 153.513 180.885 153.233 179.557 153.228C178.247 153.223 176.937 153.577 175.604 153.777Z" fill="#FDF5E5"/>
<path d="M193.4 143.208C193.845 142.939 194.302 142.702 194.732 142.398C195.977 141.517 197.199 140.586 198.45 139.72C199.919 138.702 200.084 136.94 198.804 135.56C197.964 134.654 197.129 133.737 196.261 132.875C196.024 132.64 195.684 132.527 195.378 132.466C194.592 132.31 193.789 132.28 193.012 132.078C191.905 131.789 190.982 132.114 190.151 133.091C189.805 133.497 189.362 133.761 188.98 134.119C188.302 134.753 187.605 135.36 186.975 136.067C186.206 136.932 185.938 138.114 186.057 139.392C186.095 139.805 186.296 140.372 186.553 140.547C188.607 141.936 190.744 143.031 193.108 143.138C193.193 143.142 193.28 143.124 193.365 143.116C193.377 143.146 193.388 143.177 193.4 143.208Z" fill="#FDF5E5"/>
<path d="M219.666 59.7855C218.374 60.0094 217.518 60.7153 216.891 61.9142C216.339 62.9697 215.757 63.9995 215.206 65.0562C215.107 65.2447 215.04 65.5132 215.053 65.7353C215.164 67.6296 214.61 69.2025 213.698 70.6234C212.983 71.7399 213.055 72.1871 214.129 72.6056C215.239 73.0382 216.395 73.6727 217.508 73.6037C219.236 73.497 221.047 73.4634 222.601 72.131C224.088 70.8564 224.533 69.0024 223.895 66.867C223.641 66.0208 223.508 65.1123 223.349 64.224C222.965 62.0795 221.738 60.8953 220.372 59.8923C220.136 59.7184 219.786 59.8002 219.666 59.7855Z" fill="#FDF5E5"/>
<path d="M179.042 113.593C179.509 112.331 179.058 111.055 177.894 110.624C176.455 110.091 175.208 109.137 174.009 108.043C173.833 107.883 173.722 107.606 173.581 107.384C173.762 107.214 173.925 106.976 174.128 106.887C175.184 106.417 176.168 106.811 177.121 107.394C177.581 107.675 178.025 107.994 178.477 108.296C178.522 108.237 178.567 108.178 178.612 108.12C178.456 107.864 178.318 107.588 178.143 107.358C177.525 106.547 176.902 105.743 176.266 104.957C176.101 104.754 175.893 104.588 175.683 104.469C174.195 103.621 172.62 103.386 171.011 103.385C169.768 103.383 168.613 103.761 167.61 104.729C166.713 105.593 165.857 106.528 164.957 107.387C163.822 108.471 163.882 112.232 165.187 113.452C165.304 113.562 165.504 113.59 165.656 113.564C167.318 113.283 168.985 113.041 170.636 112.676C173.156 112.119 175.616 112.531 178.068 113.255C178.381 113.347 178.69 113.47 179.042 113.593Z" fill="#FDF5E5"/>
<path d="M191.773 66.6945C191.582 66.3632 191.352 66.0563 191.213 65.6921C191.121 65.4505 191.065 65.0399 191.164 64.8642C191.264 64.6848 191.583 64.6122 191.789 64.6476C192.278 64.7318 192.754 64.9338 193.242 65.0369C193.514 65.0942 193.803 65.0863 194.078 65.043C194.496 64.9765 194.596 64.7099 194.423 64.1699C193.997 62.8381 193.607 61.4861 193.23 60.1292C193.167 59.9016 193.167 59.5106 193.274 59.3769C193.377 59.2482 193.67 59.2995 193.856 59.3715C194.181 59.4971 194.488 59.6997 194.921 59.7631C194.66 59.1494 194.397 58.5368 194.137 57.9225C193.583 56.612 193.038 55.296 192.476 53.9916C192.153 53.2411 191.842 52.4755 191.459 51.7775C190.976 50.8971 190.302 50.6946 189.513 51.0997C188.572 51.5823 187.639 52.0905 186.698 52.5706C186.222 52.8135 185.859 53.1929 185.817 53.8769C185.689 55.9476 185.524 58.0195 185.497 60.0932C185.477 61.677 186.086 62.9766 187.051 63.9564C187.71 64.6269 188.348 65.3822 189.09 65.855C189.897 66.3693 190.813 66.5999 191.68 66.9544C191.711 66.8678 191.742 66.7811 191.773 66.6945Z" fill="#FDF5E5"/>
<path d="M172.688 82.3553C172.577 82.3065 172.513 82.29 172.458 82.2509C172.283 82.1265 172.112 81.9935 171.939 81.8635C172.072 81.6347 172.168 81.3163 172.345 81.1942C172.892 80.816 173.46 80.4786 174.039 80.1894C174.681 79.8691 175.361 79.672 175.991 79.3237C176.555 79.0125 176.553 78.7453 176.169 78.1584C175.908 77.7581 175.643 77.3378 175.467 76.8717C175.13 75.984 174.616 75.4831 173.857 75.4428C172.954 75.3952 172.051 75.3934 171.148 75.3531C169.169 75.2653 167.189 75.0865 165.21 75.1017C164.123 75.1103 163.028 75.3781 161.954 75.6417C161.109 75.8491 160.743 76.7326 161.055 77.7807C161.599 79.6092 162.285 81.3041 163.637 82.4352C164.707 83.3296 165.807 83.883 167.096 83.7451C167.48 83.7042 167.871 83.7353 168.258 83.7707C170.144 83.944 170.969 83.692 172.688 82.3553Z" fill="#FDF5E5"/>
<path d="M181.776 127.346C182.458 127.248 182.943 126.826 183.204 126.11C183.504 125.287 183.7 124.4 183.934 123.538C184.144 122.762 184.319 121.97 184.552 121.207C184.919 120.001 184.374 118.649 183.441 118.166C182.677 117.771 181.894 117.276 181.288 116.58C180.66 115.858 179.999 115.389 179.203 115.196C177.678 114.827 176.194 115.033 174.778 115.864C173.609 116.55 173.504 116.98 173.909 118.511C174.486 120.691 175.332 122.593 176.805 124.001C177.368 124.54 177.764 125.365 178.31 125.942C178.648 126.3 179.121 126.457 179.545 126.664C179.803 126.789 180.083 126.841 180.354 126.922C180.827 127.065 181.302 127.205 181.776 127.346Z" fill="#FDF5E5"/>
<path d="M138.292 196.851C140.892 196.658 143.259 194.469 145.398 191.79C145.854 191.219 146.084 190.336 146.378 189.571C146.431 189.433 146.335 189.084 146.224 188.977C145.401 188.185 144.587 187.362 143.7 186.703C143.412 186.489 142.902 186.666 142.518 186.79C141.331 187.173 140.161 187.645 138.974 188.03C137.134 188.628 135.491 189.718 134.175 191.466C133.623 192.199 133.207 193.17 132.901 194.125C132.523 195.302 132.892 196.128 133.824 196.661C134.757 197.194 136.361 197.322 138.292 196.851Z" fill="#FDF5E5"/>
<path d="M63.8009 224.572C63.7782 224.408 63.7786 224.231 63.7299 224.081C62.9404 221.654 62.1641 219.218 61.332 216.815C61.1953 216.421 60.806 216.172 60.5335 215.856C60.3064 216.271 59.9493 216.65 59.8731 217.107C59.4214 219.817 58.3494 222.159 57.375 224.572C56.9237 225.689 56.6678 226.937 56.312 228.119C56.0249 229.073 55.6876 230.002 55.4336 230.97C55.1734 231.961 55.3276 232.461 56.0287 232.989C57.4757 234.078 58.9559 234.445 60.473 233.185C60.9791 232.765 61.5345 232.42 61.9839 231.917C62.3056 231.557 62.5705 231.029 62.7176 230.508C63.0553 229.315 63.3288 228.088 63.5828 226.859C63.7356 226.12 63.8028 225.352 63.9083 224.598C63.8728 224.589 63.8368 224.58 63.8009 224.572Z" fill="#FDF5E5"/>
<path d="M170.424 141.484C169.409 142.399 169.362 143.879 168.893 145.098C168.331 144.232 168.882 142.478 170.32 140.522C169.783 140.365 169.341 140.235 168.903 140.108C169.136 139.397 169.402 139.388 170.493 140.063C170.666 139.326 170.838 138.591 171.026 137.79C170.22 137.794 169.588 138.232 169.16 138.959C168.374 140.293 167.333 141.199 166.303 142.152C164.844 143.503 163.903 145.188 164.077 147.69C164.14 148.605 163.9 149.554 163.815 150.489C163.756 151.146 163.658 151.815 163.699 152.466C163.795 154.006 164.147 154.465 165.288 154.928C165.943 155.194 166.587 155.518 167.218 155.868C167.828 156.206 168.357 156.247 168.861 155.566C169.687 154.449 170.725 153.81 171.876 153.413C172.127 153.326 172.362 152.982 172.522 152.683C172.721 152.312 172.693 152.016 172.26 151.835C170.984 151.3 170.328 149.943 169.827 148.473C169.696 148.09 169.778 147.544 169.851 147.097C169.99 146.247 170.265 145.426 170.351 144.57C170.449 143.587 170.405 142.581 170.424 141.484Z" fill="#FDF5E5"/>
<path d="M246.605 124.295C246.835 124.338 247.019 124.373 247.21 124.409C247.404 123.822 247.537 123.23 247.779 122.722C248.356 121.508 249.133 120.618 250.222 120.139C251.259 119.684 252.256 119.068 253.252 118.47C254.249 117.872 254.89 116.913 255.312 115.538C255.64 114.469 256.301 113.547 256.895 112.649C257.075 112.377 257.524 112.322 257.853 112.307C258.853 112.264 259.61 111.75 260.219 110.71C260.575 110.103 261.048 109.588 261.523 109.125C262.106 108.558 262.762 108.118 263.359 107.573C265.262 105.833 267.443 105.165 269.701 104.781C269.783 104.767 269.864 104.74 270.04 104.697C269.814 103.438 269.594 102.213 269.35 100.854C268.949 100.914 268.517 100.868 268.155 101.052C266.36 101.961 264.555 102.742 263.038 104.485C261.942 105.743 260.487 106.507 259.144 107.366C258.74 107.624 258.17 107.534 257.685 107.48C256.956 107.4 256.237 107.177 255.509 107.081C255.131 107.031 254.705 107.003 254.363 107.174C252.448 108.136 252.449 109.586 253.597 111.686C253.744 111.955 253.969 112.151 254.136 112.405C254.599 113.108 254.702 113.885 254.379 114.728C253.507 117.004 252.247 118.622 250.17 118.863C248.733 119.03 247.882 120.108 247.411 121.806C247.188 122.615 246.9 123.394 246.605 124.295Z" fill="#FDF5E5"/>
<path d="M171.903 137.544C171.713 137.978 171.581 138.28 171.385 138.728C172.18 138.618 172.882 138.319 173.479 138.905C173.478 139.009 173.477 139.114 173.476 139.218C173.039 139.216 172.595 139.15 172.167 139.229C171.706 139.314 171.235 139.497 171.202 140.237C172.021 140.462 172.796 140.644 173.558 140.898C173.885 141.007 174.224 141.2 174.476 141.478C174.644 141.664 174.667 142.067 174.756 142.373C174.52 142.359 174.253 142.43 174.057 142.31C173.731 142.11 173.472 141.728 173.145 141.531C172.701 141.263 172.221 141.097 171.742 140.88C172.349 142.101 172.902 143.173 173.411 144.28C173.511 144.497 173.435 144.848 173.44 145.137C173.243 144.986 172.967 144.896 172.862 144.672C172.548 144.002 172.301 143.279 171.91 142.661C172.144 143.722 172.397 144.778 172.597 145.85C172.64 146.076 172.492 146.362 172.432 146.62C172.325 146.413 172.172 146.224 172.118 145.996C171.86 144.888 171.628 143.771 171.387 142.656C171.314 142.669 171.241 142.681 171.167 142.693C171.174 143.022 171.211 143.356 171.182 143.679C171.096 144.662 170.99 145.642 170.875 146.62C170.862 146.73 170.756 146.88 170.672 146.91C169.891 147.183 170.055 147.986 170.291 148.498C170.7 149.39 171.212 150.25 171.813 150.929C172.133 151.29 172.754 151.433 173.198 151.343C174.235 151.131 175.307 150.891 176.257 150.349C178.06 149.321 178.992 147.235 179.695 144.969C179.711 144.919 179.716 144.856 179.708 144.804C179.423 142.963 179.245 141.067 178.34 139.502C177.984 138.886 177.489 138.404 176.848 138.54C175.137 138.901 173.5 138.673 171.903 137.544Z" fill="#FDF5E5"/>
<path d="M50.7811 211.733C51.2792 211.432 52.1359 210.994 52.9283 210.412C53.6743 209.864 54.354 209.167 55.0598 208.528C55.7647 207.891 56.2415 207.098 56.4331 205.952C56.5655 205.158 56.9619 204.44 57.2207 203.678C57.3409 203.323 57.4468 202.95 57.5031 202.571C57.6129 201.839 57.3475 201.312 56.7756 201.309C55.3162 201.302 53.8668 201.003 52.4268 201.925C51.5403 202.492 50.4343 202.575 49.4144 202.687C47.9853 202.844 46.8391 204.296 46.9725 206.148C47.0468 207.181 46.8846 207.971 46.307 208.7C45.6258 209.56 45.7956 210.581 46.6953 211.076C47.8699 211.722 49.1193 211.808 50.7811 211.733Z" fill="#FDF5E5"/>
<path d="M254.291 91.9226C254.833 91.1038 255.415 90.2833 255.937 89.4029C256.12 89.0948 256.274 88.6195 256.236 88.2559C256.039 86.367 256.218 84.6282 257.068 83.0017C257.576 82.0286 257.64 80.9725 257.124 79.8688C256.762 79.0946 256.518 78.2136 256.48 77.2753C256.476 77.1966 256.442 77.1172 256.415 77.0434C255.997 75.9306 254.122 75.2668 253.341 75.9715C252.201 77.0001 251.402 78.3301 251.213 80.1635C251.088 81.3739 250.929 82.5831 250.868 83.7997C250.733 86.4738 251.523 88.6622 253.072 90.4242C253.534 90.9507 253.966 91.5205 254.291 91.9226Z" fill="#FDF5E5"/>
<path d="M176.792 83.2085C175.74 83.0267 174.789 82.7832 173.833 82.7308C173.366 82.7051 172.841 82.9272 172.423 83.225C171.052 84.2029 169.614 84.5373 168.06 84.3604C166.717 84.2072 165.389 84.2939 164.282 85.5324C164.042 85.8002 163.74 85.9985 163.442 86.1522C162.162 86.813 161.73 88.3321 161.213 89.7646C161.155 89.9263 161.144 90.1551 161.18 90.3296C161.385 91.3289 162.615 92.3838 163.402 92.1733C163.963 92.0232 164.521 91.7835 165.048 91.49C167.045 90.3778 169.017 89.1893 171.025 88.1119C171.672 87.7647 172.395 87.6195 173.094 87.478C174.316 87.2309 175.387 86.5476 176.409 85.7068C176.534 85.6037 176.645 85.367 176.664 85.1755C176.731 84.4982 176.756 83.8143 176.792 83.2085Z" fill="#FDF5E5"/>
<path d="M220.155 82.2384C220.39 82.203 220.631 82.1072 220.859 82.1426C221.976 82.3171 222.691 81.5508 223.282 80.4788C223.694 79.7327 224.116 78.9938 224.49 78.2172C224.93 77.3033 224.851 76.687 224.17 76.0623C222.277 74.3253 220.175 73.2284 217.886 74.2064C216.64 74.739 215.39 74.9391 214.136 75.2612C213.075 75.534 212.721 76.4613 213.137 77.7401C213.495 78.8407 213.984 79.7821 214.878 80.2958C215.838 80.8479 216.748 81.5752 217.739 81.9962C218.491 82.3159 219.335 82.2756 220.138 82.3958C220.144 82.3439 220.15 82.2914 220.155 82.2384Z" fill="#FDF5E5"/>
<path d="M328.393 67.4429C330.542 70.483 330.964 74.0472 330.809 77.7926C330.733 79.6114 330.084 81.0524 328.766 81.9584C328.194 82.3519 327.724 82.9938 327.237 83.4934C328.079 83.9278 328.878 84.2902 329.642 84.7502C330.228 85.1035 330.788 85.1419 331.394 84.9089C332.218 84.5916 333.048 84.2976 333.879 84.0139C334.854 83.6807 335.276 82.6783 335.599 81.604C336.093 79.9609 335.885 78.3265 335.451 76.7146C334.969 74.9215 334.138 73.4145 333.16 72.0247C332.886 71.6349 332.591 71.2554 332.373 70.8155C331.456 68.9687 330.092 68.0212 328.393 67.4429Z" fill="#FDF5E5"/>
<path d="M59.5196 216.026C59.1293 216.34 58.7163 216.615 58.3535 216.975C57.7565 217.567 57.2007 218.227 56.6108 218.832C55.6922 219.773 54.721 220.524 53.5047 220.731C52.3179 220.932 51.3703 221.844 50.5198 222.885C50.3259 223.123 50.1456 223.468 50.0974 223.798C49.9384 224.881 49.7842 225.974 49.7374 227.072C49.6688 228.672 50.543 229.81 51.8013 230.057C52.5539 230.204 53.2966 230.484 54.0237 230.784C54.5601 231.007 54.9537 231.116 55.1623 230.215C55.4187 229.107 55.7201 228.011 56.0677 226.946C56.4339 225.823 56.8331 224.71 57.2967 223.651C58.3256 221.296 59.2045 218.873 59.5196 216.026Z" fill="#FDF5E5"/>
<path d="M141.433 112.635C142.755 112.424 143.845 112.921 144.935 113.476C145.41 113.717 145.929 113.854 146.438 113.933C147.477 114.095 148.403 114.535 149.169 115.478C149.245 115.57 149.341 115.637 149.43 115.711C149.442 115.72 149.468 115.701 149.487 115.695C149.648 113.896 149.853 112.101 149.962 110.296C150.097 108.044 148.622 104.881 147.053 103.916C146.64 103.661 146.259 103.681 145.834 104.009C145.328 104.4 144.776 104.764 144.207 104.934C143.464 105.157 142.953 105.658 142.644 106.508C142.444 107.058 142.286 107.64 142.16 108.227C141.925 109.32 141.719 110.424 141.518 111.53C141.461 111.841 141.466 112.173 141.433 112.635Z" fill="#FDF5E5"/>
<path d="M210.566 69.3123C211.883 67.9567 213.301 66.5669 214.65 65.0727C215.179 64.487 215.576 63.6909 215.992 62.9514C216.345 62.3236 216.752 61.6854 216.926 60.9674C217.087 60.3023 217.123 59.4525 216.94 58.8149C216.654 57.8137 216.147 56.9151 215.714 55.9877C215.468 55.4618 215.091 55.3056 214.653 55.5551C213.689 56.1036 212.708 56.6155 211.78 57.2549C211.072 57.743 210.661 58.5934 210.457 59.6215C210.074 61.5518 209.65 63.4694 209.254 65.3961C209.22 65.5639 209.224 65.7841 209.281 65.9366C209.712 67.1019 210.161 68.2556 210.566 69.3123Z" fill="#FDF5E5"/>
<path d="M66.4491 195.949C66.0848 195.41 65.7234 194.867 65.3554 194.331C64.7158 193.4 64.5394 192.341 64.8099 191.151C65.1572 189.623 65.8592 188.377 66.6203 187.152C67.1544 186.293 67.6028 185.337 68.0291 184.38C68.1908 184.016 68.2358 183.53 68.2414 183.096C68.25 182.481 68.092 182.026 67.5139 181.86C66.6771 181.619 65.8762 181.175 65.0432 180.904C64.1018 180.597 63.3236 180.928 62.7309 182.005C62.2465 182.885 61.6774 183.688 61.1429 184.523C60.4669 185.578 60.2881 186.722 60.7029 188.019C60.9158 188.685 61.0459 189.394 61.2337 190.074C61.7919 192.093 62.7744 193.607 64.3142 194.521C65.0313 194.947 65.6917 195.531 66.3781 196.043C66.4022 196.013 66.4254 195.981 66.4491 195.949Z" fill="#FDF5E5"/>
<path d="M122.899 156.651C120.782 156.356 119.356 154.842 118.181 152.811C118.081 152.637 117.737 152.51 117.593 152.598C117.054 152.927 116.492 153.266 116.049 153.765C115.454 154.436 114.912 155.21 114.439 156.029C113.762 157.201 113.845 158.52 114.354 159.729C115.055 161.393 115.883 162.954 117.215 163.92C117.421 164.07 117.613 164.258 117.829 164.375C118.799 164.898 118.891 164.816 119.438 163.681C120.546 161.379 121.689 159.103 122.899 156.651Z" fill="#FDF5E5"/>
<path d="M192.2 143.828C190.861 143.264 189.589 142.764 188.339 142.189C187.651 141.873 186.996 141.438 186.333 141.039C185.837 140.741 185.626 140.223 185.578 139.516C185.425 137.3 186.327 135.815 187.608 134.626C188.65 133.659 189.742 132.784 190.813 131.867C190.78 131.783 190.747 131.698 190.713 131.614C190.231 131.875 189.72 132.074 189.271 132.41C187.652 133.621 186.009 134.792 184.464 136.147C183.424 137.059 182.454 138.16 181.609 139.361C181.085 140.104 180.759 141.153 180.519 142.136C180.241 143.276 180.433 143.6 181.254 144.224C182.917 145.489 184.754 145.866 186.642 146.02C188.308 146.156 189.843 145.588 191.311 144.654C191.627 144.452 191.893 144.118 192.2 143.828Z" fill="#FDF5E5"/>
<path d="M156.346 182.859C156.214 183.68 156.064 184.518 155.953 185.365C155.925 185.584 155.979 185.861 156.067 186.057C156.357 186.706 156.69 187.321 156.988 187.964C157.627 189.345 158.255 190.734 158.886 192.12C159.343 193.125 159.793 194.136 160.256 195.137C160.609 195.901 161.008 196.631 161.332 197.414C162.014 199.066 163.422 199.343 164.437 197.991C165.663 196.358 165.792 194.359 164.725 192.561C164.364 191.953 163.884 191.457 163.44 190.936C162.679 190.043 161.9 189.175 161.133 188.29C160.331 187.364 159.539 186.422 158.731 185.504C157.958 184.626 157.17 183.771 156.346 182.859Z" fill="#FDF5E5"/>
<path d="M198.833 95.0552C198.204 95.3132 197.559 95.5225 196.948 95.8385C194.055 97.3339 191.693 99.8335 189.447 102.536C188.235 103.994 187.068 105.514 185.863 106.982C185.757 107.111 185.522 107.074 185.346 107.096C185.049 107.132 184.745 107.117 184.454 107.19C183.586 107.405 182.728 107.676 181.859 107.883C180.763 108.144 179.916 107.77 179.282 106.448C178.6 105.029 177.611 103.988 176.328 103.509C176.17 103.45 175.998 103.455 175.734 103.592C176.432 104.539 177.125 105.493 177.832 106.431C178.117 106.808 178.478 107.103 178.714 107.521C178.851 107.762 178.805 108.174 178.842 108.508C178.59 108.521 178.302 108.642 178.092 108.528C177.479 108.197 176.913 107.717 176.297 107.398C175.593 107.031 174.858 106.963 174.042 107.405C175.223 108.576 176.384 109.468 177.715 110.032C178.3 110.28 178.879 110.76 179.315 111.322C179.933 112.119 179.91 112.768 179.504 113.659C180.119 114.075 180.72 114.55 181.365 114.873C181.543 114.962 181.893 114.649 182.102 114.425C182.625 113.868 183.145 113.295 183.604 112.655C184.06 112.02 184.572 111.369 184.831 110.596C185.823 107.634 187.639 105.6 189.375 103.43C192.022 100.121 195.062 97.6957 198.516 96.0832C198.728 95.9844 198.865 95.6201 199.037 95.3797C198.969 95.2718 198.9 95.1638 198.833 95.0552Z" fill="#FDF5E5"/>
<path d="M256.897 91.644C258.02 90.9002 259.256 90.3872 260.182 89.3945C261.496 87.9882 262.884 86.527 263.306 84.1696C263.509 83.0342 263.761 81.9134 263.962 80.7774C264.13 79.8214 264.194 78.744 263.454 78.2278C262.712 77.7105 261.788 77.8136 261.129 78.5341C259.737 80.0539 258.361 81.5974 257.323 83.5918C256.575 85.0292 256.301 86.66 256.746 88.1048C257.135 89.3713 256.991 90.4683 256.897 91.644Z" fill="#FDF5E5"/>
<path d="M67.5117 226.144C67.9318 227.372 67.6787 228.688 67.2416 230.054C66.7643 231.546 67.5197 234.261 68.5363 235.222C68.8821 235.548 69.2128 235.905 69.5316 236.275C70.4877 237.384 71.5331 237.215 72.2767 235.885C73.877 233.022 73.6675 230.103 72.413 227.206C71.7989 225.788 70.7805 224.95 69.5245 224.655C69.2289 224.585 68.9266 224.562 68.629 224.505C67.6564 224.32 67.3579 224.696 67.5117 226.144Z" fill="#FDF5E5"/>
<path d="M60.21 215.379C59.6083 214.301 58.6116 213.941 57.7265 214.036C55.366 214.287 52.917 213.971 50.6927 215.373C49.8474 215.905 49.0129 216.503 48.2523 217.212C47.5068 217.906 47.0186 218.911 46.8308 220.104C46.6572 221.208 46.9116 221.739 47.7716 221.971C48.9893 222.3 50.1871 222.176 51.2755 221.357C52.1791 220.676 53.101 220.153 54.1512 219.964C54.5779 219.887 54.9989 219.565 55.3755 219.258C55.9015 218.83 56.3916 218.326 56.8817 217.828C57.4058 217.296 57.8694 216.642 58.438 216.215C58.9574 215.824 59.5809 215.664 60.21 215.379Z" fill="#FDF5E5"/>
<path d="M173.12 73.4366C173.794 74.0759 174.367 74.5573 174.88 75.1284C175.211 75.4969 175.462 75.9898 175.733 76.4425C176.008 76.9013 176.238 77.4102 176.537 77.8409C177.073 78.6145 177.062 79.2331 176.337 79.6993C175.669 80.1288 174.927 80.3667 174.221 80.7035C173.709 80.9481 173.205 81.216 172.697 81.4741C172.705 81.5967 172.714 81.7187 172.722 81.8413C173.942 82.0439 175.159 82.2904 176.383 82.4331C177.138 82.521 177.184 82.5759 177.231 83.5563C177.325 85.5447 176.648 87.0345 175.413 88.317C176.77 87.9271 177.703 86.5019 177.892 84.6814C178.151 82.1781 178.153 82.1952 180.046 81.8035C180.768 81.654 181.503 81.4954 182.185 81.1745C182.754 80.9067 183.252 80.3911 183.786 79.9939C184.336 79.5846 184.857 78.9781 185.45 78.814C189.563 77.6749 193.69 77.3064 197.781 78.9897C198.554 79.3082 199.286 79.7987 200.077 80.2325C199.764 79.3546 199.42 78.6267 198.626 78.3204C196.158 77.3668 193.63 77.0844 191.079 77.1808C189.423 77.2436 187.772 77.5255 186.117 77.678C185.739 77.7128 185.311 77.7451 184.979 77.5596C183.706 76.8489 182.454 77.0295 181.186 77.523C180.567 77.764 179.949 78.0142 179.323 78.2167C178.495 78.4845 178.091 78.2015 177.549 77.3485C176.872 76.2827 176.168 75.2278 175.382 74.3011C174.823 73.6434 174.06 73.4274 173.12 73.4366Z" fill="#FDF5E5"/>
<path d="M137.126 170.975C135.649 171.351 133.986 170.703 132.764 172.41C132.617 172.615 132.094 172.671 131.931 172.501C131.564 172.118 131.841 171.608 132.127 171.409C132.625 171.063 133.172 170.762 133.725 170.635C134.757 170.398 135.808 170.298 136.943 169.941C136.732 169.808 136.523 169.569 136.31 169.562C135.151 169.52 133.99 169.562 132.831 169.505C132.624 169.495 132.426 169.153 132.224 168.965C132.429 168.781 132.633 168.447 132.84 168.443C133.282 168.434 133.73 168.578 134.171 168.691C134.756 168.84 135.336 169.02 135.935 169.104C135.347 168.182 134.564 167.72 133.7 167.819C131.881 168.026 130.056 168.271 128.266 168.716C127.564 168.89 126.876 169.484 126.658 170.636C126.529 171.317 126.176 171.928 125.912 172.563C125.503 173.544 125.602 174.414 126.193 175.277C126.498 175.723 126.72 176.273 127.051 176.679C127.605 177.357 128.038 177.252 128.651 176.737C129.421 176.091 130.255 175.569 131.077 175.034C132.09 174.374 133.12 173.754 134.143 173.12C134.376 172.976 134.608 172.735 134.846 172.723C135.845 172.67 136.343 171.538 137.126 170.975Z" fill="#FDF5E5"/>
<path d="M71.2341 197.333C71.2663 197.488 71.3013 197.826 71.4039 198.125C72.1083 200.174 74.7914 201.959 76.4944 201.514C77.0105 201.379 77.4083 201.163 77.4429 200.285C77.4694 199.614 77.7172 198.949 77.9036 198.299C78.1714 197.364 78.1723 196.435 77.8648 195.537C77.0914 193.275 75.9844 191.432 74.0591 190.641C73.5828 190.446 73.2299 190.587 72.8074 190.94C71.1579 192.319 71.2062 194.447 71.2114 196.576C71.2123 196.77 71.2227 196.964 71.2341 197.333Z" fill="#FDF5E5"/>
<path d="M292.637 118.494C293.272 120.082 292.505 121.521 292.159 123.031C291.983 123.796 291.746 124.538 291.531 125.311C292.266 125.951 292.997 126.282 293.869 126.072C294.414 125.94 295.004 125.823 295.534 125.959C296.588 126.231 297.458 125.848 298.22 124.995C299.976 123.03 300.395 122.113 299.658 119.481C299.44 118.705 299.1 117.985 298.819 117.237C298.593 116.637 298.293 116.492 297.783 116.76C296.786 117.282 295.775 117.78 294.741 118.152C294.083 118.389 293.373 118.384 292.637 118.494Z" fill="#FDF5E5"/>
<path d="M166.714 161.39C165.346 160.736 165.377 160.026 166.818 157.449C166.027 157.568 165.375 157.618 164.739 157.775C164.106 157.931 163.443 158.079 162.877 158.445C162.363 158.777 161.861 159.306 161.526 159.907C160.357 162.003 159.227 164.139 158.152 166.316C157.54 167.553 157.044 168.888 156.543 170.21C156.464 170.42 156.568 170.88 156.711 171.061C156.873 171.267 157.207 171.44 157.41 171.369C159.446 170.653 161.044 169.143 162.213 166.864C163.031 165.269 164.043 163.929 165.325 162.923C165.808 162.544 166.2 161.967 166.714 161.39Z" fill="#FDF5E5"/>
<path d="M269.844 115.283C270.736 111.135 271.916 107.391 275.152 105.303C274.22 105.303 273.288 105.316 272.356 105.301C271.544 105.288 270.725 105.143 269.923 105.244C269.014 105.356 268.111 105.631 267.226 105.935C266.981 106.02 266.734 106.415 266.619 106.744C266.264 107.754 265.894 108.773 265.672 109.838C265.218 112.013 265.573 114.011 266.711 115.742C266.796 115.87 267.003 115.954 267.135 115.925C268.067 115.725 268.994 115.489 269.844 115.283Z" fill="#FDF5E5"/>
<path d="M159.321 198.955C159.342 199.449 159.382 199.943 159.379 200.437C159.37 201.533 158.884 202.011 158.112 201.534C157.486 201.148 156.95 200.514 156.379 199.983C156.278 199.89 156.198 199.76 156.04 199.562C156.008 200.207 156.041 200.761 155.943 201.273C155.588 203.126 155.206 204.97 154.791 206.801C154.69 207.25 154.687 207.492 154.962 207.865C155.751 208.937 156.52 209.998 157.618 210.579C159.007 211.313 159.948 211.02 160.833 209.453C161.393 208.462 161.742 207.355 161.695 206.117C161.592 203.376 160.88 200.941 159.321 198.955Z" fill="#FDF5E5"/>
<path d="M272.133 104.869C274.16 104.961 276.086 105.048 278.134 105.141C277.756 104.444 277.477 103.892 277.168 103.369C275.329 100.255 275.268 96.7986 276.045 93.2216C276.2 92.5071 276.141 92.0782 275.676 91.7073C275.457 91.5316 275.251 91.3284 275.026 91.1637C273.739 90.2162 273.581 90.2571 273.165 92.0538C272.657 94.2459 272.13 96.4447 271.798 98.6862C271.495 100.737 271.654 102.828 272.133 104.869Z" fill="#FDF5E5"/>
<path d="M56.7964 198.962C55.4752 198.151 54.1483 197.276 52.7821 196.516C51.5886 195.853 50.3005 195.722 49.036 196.031C47.4991 196.406 45.9693 196.869 44.4702 197.441C43.6636 197.748 43.622 198.198 44.1982 199.092C45.5629 201.21 47.3354 202.349 49.4675 202.171C50.5834 202.077 51.7111 201.668 52.7727 201.181C54.1738 200.539 55.515 199.68 56.7964 198.962Z" fill="#FDF5E5"/>
<path d="M64.817 196.389C64.6523 196.187 64.4522 195.944 64.254 195.698C63.5123 194.78 62.6811 193.952 62.0567 192.916C61.489 191.973 61.0273 190.856 60.7364 189.723C60.4072 188.44 59.7965 187.534 58.9757 186.855C58.6337 186.572 58.128 186.509 57.7013 186.528C57.0821 186.554 56.469 186.772 55.8498 186.863C54.521 187.058 54.0962 188.136 54.8006 189.604C54.9813 189.98 55.1965 190.334 55.4241 190.667C56.2902 191.935 57.19 193.166 58.0348 194.458C59.1252 196.124 60.4952 197.129 62.1433 197.531C62.2606 197.56 62.3987 197.566 62.5075 197.514C63.2606 197.159 64.009 196.785 64.817 196.389Z" fill="#FDF5E5"/>
<path d="M198.151 61.5682C197.994 62.0124 197.863 62.4773 197.67 62.894C197.536 63.1838 197.315 63.4071 197.133 63.6603C196.943 63.429 196.699 63.2393 196.573 62.9605C195.948 61.5762 195.155 60.4463 193.962 59.8703C193.882 59.8313 193.8 59.7934 193.717 59.7715C193.682 59.7623 193.641 59.7977 193.546 59.8355C193.941 61.1796 194.3 62.5377 194.739 63.8518C195.089 64.8976 194.899 65.4924 194.011 65.5308C193.44 65.5553 192.863 65.3655 192.29 65.2624C192.044 65.2179 191.801 65.1483 191.557 65.0904C191.517 65.1672 191.477 65.2435 191.437 65.3204C191.739 65.712 191.992 66.227 192.355 66.4686C193.018 66.9097 193.738 67.2135 194.448 67.5265C195.043 67.7888 195.185 68.1891 194.706 68.69C194.15 69.2708 193.491 69.6942 192.863 70.1542C192.666 70.2994 192.423 70.3433 192.201 70.433C192.217 70.53 192.233 70.627 192.249 70.724C193.188 70.4592 194.159 70.3104 195.057 69.8992C196.045 69.4465 196.963 69.3708 197.949 69.8363C198.425 70.0609 198.964 70.2042 199.465 70.1652C200.749 70.0651 201.57 70.9443 202.276 72.1407C202.784 73.0022 203.293 73.8642 203.775 74.7495C204.587 76.2394 205.291 77.7787 205.166 79.7224C205.149 79.9781 205.393 80.2612 205.672 80.496C205.704 80.0787 205.767 79.6614 205.762 79.2453C205.716 75.204 204.425 72.0766 201.672 70.0261C201.434 69.8485 201.168 69.6661 201.008 69.394C200.438 68.4203 199.763 67.6473 198.893 67.1342C198.278 66.7718 198.139 66.0238 198.201 65.2301C198.246 64.6523 198.408 64.0873 198.435 63.5102C198.465 62.8769 198.4 62.2363 198.377 61.5987C198.301 61.5878 198.226 61.578 198.151 61.5682Z" fill="#FDF5E5"/>
<path d="M206.38 81.7511C206.752 80.1282 207.017 78.6127 207.462 77.1906C207.66 76.561 208.158 75.9808 208.632 75.6275C209.485 74.9906 210.299 75.3017 210.918 76.3072C211.213 76.7861 211.451 77.3291 211.775 77.7696C212.147 78.2772 212.586 78.7036 212.996 79.1655C213.063 79.0984 213.129 79.0319 213.196 78.9648C213.075 78.6414 212.951 78.3193 212.832 77.9941C212.234 76.3572 212.731 75.0565 214.115 74.7154C214.749 74.5592 215.398 74.511 216.039 74.403C216.264 74.3652 216.485 74.2951 216.709 74.062C216.079 73.8503 215.444 73.6624 214.821 73.4202C214.349 73.2365 213.866 73.0492 213.435 72.7497C212.713 72.2476 212.637 71.6295 213.11 70.7613C213.468 70.103 213.867 69.4746 214.173 68.7773C214.568 67.8743 214.749 66.8835 214.623 65.6475C213.384 67.0153 212.234 68.2904 211.077 69.557C210.847 69.8084 210.593 70.0243 210.351 70.2568C210.236 69.9176 210.108 69.5838 210.009 69.2367C209.733 68.2685 209.469 67.2947 209.2 66.3229C209.123 66.3448 209.045 66.3668 208.967 66.3887C208.683 67.9408 208.314 69.4777 208.149 71.0505C208.061 71.8864 208.276 72.8003 208.445 73.649C208.66 74.724 208.616 74.9003 207.905 75.522C206.944 76.3615 206.447 77.6116 206.204 79.0404C206.117 79.5523 206.01 80.0819 206.032 80.5937C206.049 80.9879 206.257 81.368 206.38 81.7511Z" fill="#FDF5E5"/>
<path d="M137.29 172.826C137.048 173.342 136.744 173.827 136.577 174.382C136.324 175.225 136.001 175.95 135.304 176.24C135.139 176.309 134.922 176.174 134.729 176.132C134.846 175.97 134.955 175.797 135.081 175.648C135.344 175.337 135.663 175.085 135.874 174.726C136.348 173.92 136.771 173.065 137.215 172.229C137.271 172.123 137.323 172.014 137.377 171.906C137.331 171.843 137.285 171.78 137.239 171.717C136.851 172.171 136.447 172.605 136.079 173.086C135.779 173.479 135.557 173.98 135.234 174.333C135.03 174.556 134.705 174.595 134.434 174.717C134.4 174.63 134.366 174.544 134.332 174.458C134.716 173.992 135.1 173.525 135.484 173.059C135.444 172.978 135.405 172.896 135.365 172.814C135.093 172.969 134.769 173.05 134.555 173.292C133.489 174.487 132.198 175.098 130.92 175.771C130.269 176.114 129.648 176.581 129.061 177.085C128.46 177.6 128.281 178.543 128.477 179.449C128.616 180.09 128.721 180.744 128.84 181.392C129.025 182.392 130.374 183.377 131.111 183.035C131.2 182.993 131.255 182.842 131.335 182.755C131.9 182.135 132.464 181.511 133.037 180.902C133.681 180.218 134.354 179.576 134.98 178.866C135.698 178.05 136.404 177.253 137.416 177.11C137.544 177.092 137.755 176.819 137.752 176.669C137.73 175.434 137.665 174.2 137.614 172.965C137.506 172.917 137.398 172.871 137.29 172.826Z" fill="#FDF5E5"/>
<path d="M144.778 186.908C145.508 187.53 146.242 188.143 146.964 188.779C147.171 188.961 147.329 189.232 147.533 189.421C148.303 190.133 149.054 190.888 149.863 191.518C152.237 193.366 154.216 195.762 155.979 198.498C156.51 199.321 157.156 200.034 157.804 200.708C158.038 200.95 158.435 200.929 158.757 201.029C158.8 200.635 158.917 200.228 158.875 199.85C158.426 195.799 156.913 192.768 153.893 191.122C152.91 190.586 151.985 189.859 151.067 189.149C149.952 188.288 148.835 187.487 147.514 187.262C147.007 187.176 146.519 186.904 146.015 186.766C145.634 186.663 145.241 186.638 144.853 186.578C144.828 186.688 144.803 186.798 144.778 186.908Z" fill="#FDF5E5"/>
<path d="M221.817 98.3306C221.772 100.015 221.689 101.605 221.719 103.191C221.726 103.584 222.04 104.186 222.318 104.314C223.305 104.771 224.327 105.134 225.358 105.378C225.673 105.452 226.161 105.144 226.393 104.807C227.005 103.92 227.549 102.945 228.057 101.952C228.225 101.623 228.3 101.104 228.24 100.719C228.11 99.8802 227.868 99.0706 227.665 98.2519C227.62 98.0682 227.587 97.8352 227.483 97.726C226.53 96.7199 225.689 95.4765 224.367 95.2374C224.044 95.1788 223.867 95.2709 223.775 95.7431C223.504 97.1311 222.732 97.9084 221.817 98.3306Z" fill="#FDF5E5"/>
<path d="M203.337 99.885C202.445 99.7496 201.98 100.484 201.544 101.07C200.149 102.949 199.301 105.251 198.602 107.671C197.465 111.601 197.214 115.676 197.295 119.816C197.322 121.159 197.105 122.419 196.525 123.542C195.554 125.423 195.181 127.495 195.306 129.724C195.345 130.427 195.113 130.775 194.603 130.859C193.877 130.978 193.15 131.08 192.424 131.189C192.42 131.257 192.416 131.325 192.412 131.393C193.14 131.546 193.865 131.757 194.598 131.835C195.341 131.915 196.114 131.745 196.741 132.661C196.793 132.378 196.82 132.226 196.848 132.074C197.016 131.169 197.186 131.067 197.893 131.209C198.493 131.329 199.108 131.338 199.757 131.4C199.712 131.188 199.713 131.11 199.689 131.094C198.602 130.339 198.358 129.196 198.549 127.668C198.657 126.806 198.589 125.799 198.339 124.993C197.826 123.342 197.645 121.68 197.771 119.935C198.097 115.405 198.834 110.974 199.944 106.669C200.601 104.117 201.537 101.688 203.337 99.885Z" fill="#FDF5E5"/>
<path d="M215.566 91.7538C215.328 89.3372 213.615 87.1304 211.739 86.8236C210.265 86.5826 209.573 87.2836 209.31 89.1773C209.194 90.0162 209.013 90.8521 208.78 91.6495C208.269 93.3907 208.672 94.4742 210.058 94.8928C210.833 95.1271 211.606 95.3796 212.39 95.5566C214.3 95.9873 215.804 94.1704 215.566 91.7538Z" fill="#FDF5E5"/>
<path d="M180.461 114.625C176.999 113.112 173.499 112.189 169.827 113.381C168.978 113.656 168.091 113.784 167.215 113.857C165.492 114.002 163.812 114.243 162.478 115.874C162.326 116.06 162.186 116.263 162.053 116.443C164.119 117.986 166.213 118.256 168.461 117.282C169.675 116.756 170.969 116.402 172.244 116.299C173.12 116.229 173.853 116.003 174.641 115.508C176.3 114.466 178.07 114.297 179.866 115C180.057 115.076 180.285 115 180.496 114.994C180.484 114.871 180.472 114.748 180.461 114.625Z" fill="#FDF5E5"/>
<path d="M280.869 126.824C279.824 126.161 279.515 125.096 279.41 123.885C279.217 121.657 279.288 119.457 279.801 117.167C279.299 117.6 278.741 117.954 278.307 118.479C276.783 120.319 275.305 122.221 273.801 124.089C273.538 124.417 273.506 124.668 273.658 125.152C274.183 126.819 275.326 127.811 276.166 129.129C276.29 129.322 276.704 129.352 276.937 129.259C277.901 128.874 278.864 128.465 279.791 127.955C280.177 127.743 280.471 127.254 280.869 126.824Z" fill="#FDF5E5"/>
<path d="M178.415 156.467C178.322 156.165 178.318 156.09 178.289 156.066C175.373 153.636 172.286 152.458 169.329 155.747C168.742 156.4 168.073 156.933 167.508 157.614C167.028 158.191 166.612 158.873 166.234 159.568C166.119 159.779 166.142 160.251 166.254 160.481C166.327 160.632 166.683 160.637 166.893 160.582C167.355 160.46 167.825 160.319 168.257 160.082C169.426 159.438 170.632 159.278 171.867 159.575C172.957 159.838 173.857 159.516 174.601 158.426C175.178 157.58 175.92 157.135 176.8 156.996C177.333 156.911 177.851 156.658 178.415 156.467Z" fill="#FDF5E5"/>
<path d="M291.18 102.632C291.765 102.711 292.211 102.826 292.657 102.822C294.757 102.803 296.485 103.892 297.637 106.077C298.586 107.879 299.754 109.242 301.111 110.21C301.143 108.808 301.227 107.308 301.2 105.812C301.134 102.253 299.76 100.922 296.892 100.275C296.303 100.142 295.685 100.235 295.087 100.147C294.431 100.051 293.774 99.91 293.134 99.702C292.773 99.5849 292.545 99.558 292.346 100.046C292.007 100.878 291.616 101.676 291.18 102.632Z" fill="#FDF5E5"/>
<path d="M279.358 106.516C278.685 105.688 277.933 105.478 277.104 105.559C274.716 105.793 273.062 107.477 271.926 110.059C271.388 111.285 270.969 112.609 270.572 113.925C270.195 115.172 270.969 116.606 272.006 116.661C272.162 116.669 272.358 116.486 272.479 116.323C273.15 115.421 273.813 114.51 274.462 113.582C275.947 111.458 277.422 109.323 278.901 107.192C279.042 106.988 279.18 106.779 279.358 106.516Z" fill="#FDF5E5"/>
<path d="M185.496 121.792C184.395 121.96 184.526 123.093 184.306 123.976C184.096 124.818 183.91 125.71 183.539 126.431C183.254 126.984 182.737 127.544 182.254 127.676C181.417 127.904 180.957 128.565 180.652 129.422C180.113 130.934 179.47 132.31 178.452 133.375C178.032 133.815 177.837 135.031 178.091 135.438C178.497 136.089 179.071 136.062 179.566 135.743C180.872 134.903 182.189 134.064 183.411 133.043C183.932 132.608 184.342 131.788 184.603 131.028C185.324 128.922 185.601 126.666 185.627 124.37C185.637 123.488 185.541 122.605 185.496 121.792Z" fill="#FDF5E5"/>
<path d="M144.825 185.87C146.043 186.198 147.194 186.507 148.409 186.833C148.357 186.542 148.316 186.335 148.284 186.126C148.141 185.189 148.092 184.291 148.476 183.385C149.088 181.939 149.312 180.425 149.106 178.728C149.006 177.912 149.288 176.899 149.619 176.136C151.711 171.308 154.253 166.964 157.928 163.917C158.254 163.648 158.577 163.349 158.934 163.176C159.785 162.761 160.098 161.794 160.547 160.866C159.433 160.661 158.65 161.329 157.905 162.086C153.763 166.291 150.61 171.491 148.472 177.711C148.416 177.873 148.324 178.099 148.215 178.136C147.142 178.506 146.572 179.58 146.181 180.754C145.663 182.314 144.901 183.774 144.825 185.545C144.82 185.653 144.824 185.761 144.825 185.87Z" fill="#FDF5E5"/>
<path d="M139.253 197.377C137.704 197.523 136.148 197.668 134.537 197.82C134.006 199.777 135.137 202.943 136.807 203.862C137.697 204.352 138.592 204.827 139.487 205.305C140.231 205.702 140.98 205.815 141.743 205.375C142.197 205.114 142.329 204.837 142.042 204.173C141.07 201.921 140.166 199.621 139.253 197.377Z" fill="#FDF5E5"/>
<path d="M316.713 80.1012C316.517 79.2148 316.322 78.3942 316.156 77.5632C315.676 75.1594 316.251 73.0405 317.345 71.1504C318.359 69.3982 319.375 67.6082 320.89 66.4801C321.384 66.1122 321.916 65.8303 322.467 65.4862C322.051 64.9548 321.53 64.8237 320.998 64.9738C317.506 65.9572 314.839 68.3214 313.423 72.6867C312.893 74.3181 313.551 77.2527 314.649 78.3569C315.293 79.0049 315.742 80.0402 316.713 80.1012Z" fill="#FDF5E5"/>
<path d="M149.604 101.332C149.716 101.738 149.843 102.139 149.939 102.551C150.726 105.946 150.855 109.376 150.205 112.83C149.79 115.033 149.956 117.13 150.809 119.119C151.141 119.895 151.505 120.649 151.905 121.52C152.003 121.242 152.071 121.032 152.151 120.829C153.716 116.841 153.287 112.725 152.528 108.638C152.2 106.874 151.663 105.157 151.093 103.492C150.802 102.641 150.226 101.953 149.779 101.192C149.72 101.238 149.662 101.285 149.604 101.332Z" fill="#FDF5E5"/>
<path d="M181.037 127.77C180.48 127.567 180.012 127.318 179.53 127.255C179.312 127.227 178.936 127.497 178.85 127.754C178.026 130.218 176.699 132.069 174.941 133.481C174.033 134.211 173.201 135.098 172.343 135.929C171.83 136.425 171.842 137.075 172.421 137.41C173.005 137.747 173.647 138.177 174.251 138.145C175.963 138.057 177.68 137.854 179.371 137.495C180.281 137.301 181.032 136.534 181.494 135.197C180.874 135.591 180.394 135.946 179.885 136.209C178.94 136.697 178.077 136.48 177.709 135.721C177.342 134.962 177.688 133.562 178.339 132.724C178.883 132.024 179.356 131.223 179.812 130.422C180.038 130.026 180.133 129.511 180.328 129.081C180.52 128.654 180.764 128.267 181.037 127.77Z" fill="#FDF5E5"/>
<path d="M180.971 115.183C181.45 116.427 182.213 117.181 183.172 117.599C184.816 118.314 185.053 118.716 185.075 121.012C185.421 120.159 185.694 120.472 186.05 121.018C185.994 120.401 185.988 119.768 185.873 119.17C185.625 117.884 185.922 116.916 186.708 116.085C187.524 115.223 188.321 114.32 189.052 113.342C189.506 112.734 189.871 111.987 190.18 111.237C190.337 110.854 190.416 110.254 190.295 109.879C190.056 109.138 190.306 108.717 190.622 108.191C192.727 104.686 195.179 101.672 198.114 99.3462C198.769 98.8264 199.495 98.4536 200.217 97.9948C200.006 97.3945 199.658 97.1968 199.166 97.5544C198.306 98.1785 197.385 98.7044 196.609 99.4731C194.001 102.056 191.651 104.99 189.714 108.441C189.641 108.571 189.549 108.749 189.446 108.776C188.302 109.082 187.781 110.287 187.209 111.382C186.547 112.648 185.97 113.989 185.307 115.255C184.461 116.873 183.51 117.111 182.211 116.117C181.8 115.803 181.384 115.494 180.971 115.183Z" fill="#FDF5E5"/>
<path d="M140.239 176.653C139.944 177.159 139.685 177.711 139.346 178.163C138.539 179.243 138.019 179.085 137.605 177.517C137.179 177.714 136.722 177.844 136.333 178.126C135.945 178.408 135.63 178.853 135.273 179.209C134.46 180.018 133.633 180.802 132.829 181.623C132.412 182.049 131.964 182.467 131.648 183.004C131.165 183.826 131.204 184.634 131.619 185.31C132.008 185.945 132.799 186.269 133.436 185.958C133.853 185.755 134.236 185.426 134.623 185.13C135.582 184.397 136.516 183.605 137.496 182.922C138.764 182.037 139.704 180.77 140.218 179.059C140.436 178.333 140.405 177.482 140.486 176.688C140.404 176.676 140.322 176.664 140.239 176.653Z" fill="#FDF5E5"/>
<path d="M206.175 91.0271C206.869 89.1242 207.495 87.4117 208.131 85.6661C206.905 85.6003 206.345 84.1189 205.52 83.0811C203.936 81.0855 202.346 79.0972 200.772 77.0881C200.433 76.6549 200.148 76.755 199.805 77.0515C199.41 77.3925 199.486 77.7775 199.689 78.1924C200.055 78.9428 200.43 79.6878 200.8 80.4363C201.711 82.2813 202.609 84.1384 203.538 85.9694C204.4 87.6716 205.295 89.3451 206.175 91.0271Z" fill="#FDF5E5"/>
<path d="M209.64 146.043C209.642 145.78 209.671 145.512 209.642 145.256C209.427 143.376 209.1 141.535 208.322 139.892C206.495 136.028 204.047 133.102 200.677 131.598C200.596 131.562 200.494 131.478 200.434 131.511C199.545 132.008 198.637 131.87 197.719 131.706C197.597 131.684 197.341 131.922 197.329 132.065C197.294 132.484 197.244 133.007 197.402 133.316C197.552 133.608 197.951 133.712 198.254 133.845C199.375 134.336 200.512 134.768 201.624 135.29C203.773 136.296 205.528 137.981 206.753 140.5C207.461 141.957 208.12 143.454 208.809 144.927C209.003 145.341 209.221 145.736 209.427 146.14C209.498 146.108 209.569 146.076 209.64 146.043Z" fill="#FDF5E5"/>
<path d="M326.66 53.5542C325.893 53.9099 325.117 54.2692 324.295 54.6493C324.301 54.6682 324.329 54.8153 324.382 54.9452C325.344 57.3008 325.757 59.7821 325.418 62.4348C325.26 63.6679 324.923 64.0486 323.947 63.9943C323.302 63.9583 322.661 63.8228 322.018 63.7472C321.304 63.663 320.661 63.8783 320.126 64.5989C321.465 63.9857 322.592 64.677 323.765 65.4305C323.187 66.8666 323.627 68.2333 323.671 69.7689C324.731 68.98 325.322 67.9752 325.491 66.5726C325.524 66.2992 325.499 66.0119 325.544 65.7434C325.614 65.3237 325.844 65.1419 326.106 65.4457C327.048 66.5347 328.256 66.7837 329.389 67.2961C330.051 67.5957 330.663 68.0795 331.39 68.5383C331.082 67.4999 330.53 66.8794 329.819 66.4749C329.15 66.093 328.462 65.7648 327.785 65.4042C327.607 65.309 327.429 65.1998 327.268 65.0638C326.692 64.5751 326.577 63.9461 326.753 63.1011C326.931 62.2494 327.131 61.3544 327.1 60.4923C327.013 58.1458 326.811 55.8073 326.66 53.5542Z" fill="#FDF5E5"/>
<path d="M135.296 152.168C135.81 153.107 136.243 153.896 136.75 154.824C137.008 154.41 137.32 154.082 137.454 153.659C137.719 152.827 138.094 152.516 138.826 152.399C140.556 152.123 142.265 151.621 143.979 151.189C147.461 150.309 150.977 149.814 154.522 149.989C155.305 150.028 156.068 150.705 156.84 151.09C157.352 151.345 157.854 151.775 158.377 151.823C159.539 151.93 160.704 151.895 161.792 152.559C161.934 152.646 162.119 152.616 162.471 152.669C162.16 152.157 161.904 151.831 161.737 151.439C161.338 150.502 160.998 149.524 160.598 148.588C160.49 148.332 160.269 148.011 160.077 147.983C158.602 147.767 157.091 147.531 155.682 148.271C154.203 149.047 152.68 149.479 151.112 149.629C147.17 150.004 143.248 150.546 139.408 151.784C138.42 152.102 137.468 152.144 136.477 152.007C136.131 151.959 135.772 152.097 135.296 152.168Z" fill="#FDF5E5"/>
<path d="M147.27 127.048C147.808 126.82 148.362 126.639 148.88 126.352C149.513 126.001 150.118 125.568 150.73 125.157C151.272 124.793 151.771 124.879 152.234 125.368C152.601 125.756 152.973 126.138 153.32 126.555C154.185 127.594 155.14 128.384 156.313 128.764C157.508 129.151 158.228 130.431 159.015 131.514C160.415 133.44 161.748 135.448 163.115 137.415C163.29 137.667 163.499 137.879 163.692 138.111C163.744 138.058 163.796 138.004 163.848 137.951C163.742 137.712 163.662 137.445 163.526 137.241C162.123 135.133 160.712 133.032 159.299 130.936C158.608 129.911 157.934 128.91 157.507 127.607C157.23 126.759 156.606 126.065 156.063 125.404C155.28 124.451 154.436 123.581 153.606 122.692C153.242 122.302 153.101 121.98 153.456 121.395C153.901 120.661 153.999 118.545 153.724 116.924C153.553 117.396 153.432 117.688 153.338 117.993C152.853 119.567 152.437 121.183 151.866 122.702C151.623 123.347 151.119 123.917 150.63 124.3C149.511 125.177 148.328 125.916 147.171 126.712C147.204 126.823 147.237 126.935 147.27 127.048Z" fill="#FDF5E5"/>
<path d="M208.021 99.6915C208.173 98.7061 208.308 97.8288 208.463 96.8252C206.806 96.1645 205.293 94.7051 203.385 94.6447C202.787 94.6258 202.192 94.3482 201.596 94.3518C201.017 94.3549 200.409 94.4623 199.867 94.7149C199.264 94.9961 199.199 95.8021 199.651 96.3859C200.227 97.1302 200.775 97.9216 201.407 98.5768C201.749 98.9307 202.228 99.1308 202.669 99.24C203.059 99.337 203.482 99.2009 203.89 99.1869C205.317 99.1387 206.77 98.7196 208.021 99.6915Z" fill="#FDF5E5"/>
<path d="M138.769 166.94C139.309 167.867 139.808 168.723 140.331 169.619C140.84 168.907 141.346 168.255 141.127 167.193C141.018 166.66 141.249 166.364 141.574 166.131C144.807 163.817 148.109 161.717 151.794 160.878C153.534 160.482 155.282 160.129 157.036 159.848C157.615 159.756 158.222 159.963 158.818 160.008C159.434 160.054 160.058 160.156 160.666 160.072C161.124 160.008 161.387 159.579 161.249 158.881C161.034 157.789 161.004 156.753 161.44 155.661C161.704 154.999 161.63 154.113 161.716 153.242C161.216 153.043 160.707 152.839 160.198 152.637C159.693 152.436 159.484 152.804 159.52 153.354C159.551 153.833 159.637 154.374 159.846 154.754C160.706 156.323 159.798 158.671 158.442 158.905C157.332 159.097 156.233 159.405 155.121 159.564C151.586 160.069 148.159 161.095 144.868 162.865C143.383 163.664 142.01 164.675 140.745 165.952C140.55 166.148 140.238 166.272 139.994 166.24C139.458 166.172 139.083 166.423 138.769 166.94Z" fill="#FDF5E5"/>
<path d="M253.931 106.642C254.333 106.582 254.695 106.527 255.018 106.478C254.734 105.325 254.407 104.217 254.191 103.075C253.772 100.864 254.051 98.6935 254.947 96.8022C255.55 95.5307 256.553 94.6375 257.776 94.363C258.541 94.1915 259.311 94.0512 260.066 93.8279C260.706 93.6382 261.283 93.2776 261.486 92.479C260.274 92.6962 259.055 93 257.824 93.1123C256.33 93.2489 256.021 93.3569 256.567 91.1465C256.711 90.5651 256.709 89.9233 256.708 89.2857C255.891 90.2137 254.936 90.9482 254.829 92.5309C254.789 93.1178 254.484 93.1111 254.2 92.7383C253.599 91.9488 252.984 91.1734 252.426 90.3357C251.883 89.5212 251.403 88.6353 250.832 87.6738C250.873 88.1247 250.871 88.5231 250.949 88.8922C251.212 90.1277 251.718 91.1795 252.461 92.0397C252.717 92.3368 252.986 92.6279 253.2 92.972C254.458 94.9926 254.481 96.1561 253.708 98.1621C252.705 100.768 253.084 103.411 253.652 106.043C253.701 106.271 253.845 106.464 253.931 106.642Z" fill="#FDF5E5"/>
<path d="M156.64 171.679C155.835 170.772 155.847 170.774 156.446 169.367C157.24 167.502 158.011 165.619 158.867 163.563C158.421 163.988 157.975 164.236 157.737 164.673C156.84 166.312 156.013 168.037 155.82 170.077C155.514 173.299 155.29 176.535 155.015 179.762C154.841 181.804 154.682 183.85 154.421 185.874C154.339 186.505 153.957 187.077 153.691 187.661C153.584 187.897 153.407 188.078 153.285 188.306C152.642 189.505 152.731 189.866 153.753 190.431C154.44 190.812 155.115 191.236 155.838 191.667C156.065 190.592 156.114 189.513 155.825 188.484C155.413 187.011 155.443 185.586 155.735 184.079C156.274 181.289 156.375 178.439 156.313 175.565C156.286 174.346 156.51 173.118 156.64 171.679Z" fill="#FDF5E5"/>
<path d="M163.005 140.756C164.459 140.637 165.842 142.046 167.252 140.71C167.644 140.338 167.993 139.871 168.309 139.39C168.946 138.419 169.634 137.614 170.635 137.272C171.002 137.146 171.309 136.652 171.607 136.277C171.832 135.993 171.997 135.629 172.304 135.106C171.105 134.917 169.982 134.706 168.852 134.588C168.619 134.563 168.359 134.872 168.12 135.048C167.475 135.522 166.868 136.111 166.187 136.467C164.774 137.206 163.788 138.474 163.108 140.189C163.062 140.304 163.059 140.449 163.005 140.756Z" fill="#FDF5E5"/>
<path d="M66.9399 232.839C66.4087 231.333 66.7147 229.964 67.1608 228.554C67.3372 227.996 67.2398 227.251 67.1636 226.611C67.0567 225.716 66.9233 224.864 67.4512 224.087C67.534 223.966 67.5123 223.603 67.429 223.452C67.3458 223.301 67.0624 223.148 66.9758 223.218C66.6248 223.504 66.2748 223.829 66.0004 224.226C65.5184 224.924 65.1229 225.722 64.6366 226.415C63.3613 228.23 63.0353 230.427 63.1063 232.755C63.1385 233.808 63.6768 234.188 64.4587 233.874C65.2492 233.556 66.0335 233.218 66.9399 232.839Z" fill="#FDF5E5"/>
<path d="M150.836 141.666C152.721 137.995 150.286 132.477 146.631 131.933C146.668 132.221 146.707 132.477 146.733 132.736C146.819 133.585 146.996 134.443 146.962 135.285C146.887 137.152 147.539 138.6 148.38 139.977C148.46 140.108 148.553 140.226 148.646 140.34C149.241 141.068 149.759 141.977 150.836 141.666Z" fill="#FDF5E5"/>
<path d="M256.731 92.7154C257.61 92.6672 258.521 92.7911 259.359 92.5269C260.43 92.1895 261.447 91.5495 262.479 91.0145C262.672 90.9144 262.87 90.7351 262.995 90.5233C264.231 88.4295 265.46 86.3222 265.43 83.5011C265.421 82.6963 265.38 81.891 265.323 81.0887C265.243 79.9491 264.926 79.2889 264.162 78.644C264.467 80.7593 263.844 82.6561 263.536 84.6108C263.464 85.0654 263.36 85.5644 263.146 85.9189C261.842 88.086 260.561 90.2817 258.375 91.156C257.772 91.397 257.253 91.9864 256.696 92.4159C256.708 92.5159 256.719 92.6154 256.731 92.7154Z" fill="#FDF5E5"/>
<path d="M138.033 166.359C137.582 165.573 136.745 165.419 136.005 165.07C135.609 164.882 135.161 164.832 134.734 164.811C133.252 164.736 131.769 164.668 130.287 164.665C129.602 164.664 128.905 164.749 128.234 164.919C127.355 165.142 126.636 165.737 126.213 166.811C125.87 167.681 125.964 168.03 126.701 168.082C127.553 168.143 128.419 168.087 129.269 167.965C130.551 167.78 131.82 167.449 133.101 167.263C134.16 167.109 135.163 167.381 136.013 168.297C136.106 168.397 136.236 168.441 136.287 168.473C136.38 167.797 136.309 166.921 136.611 166.543C136.886 166.199 137.568 166.397 138.033 166.359Z" fill="#FDF5E5"/>
<path d="M197.134 63.0305C198.19 61.2326 198.297 59.2363 197.453 57.3328C197.079 56.489 196.748 55.6135 196.37 54.7734C195.485 52.8095 194.176 51.69 192.397 51.5527C192.275 51.5429 192.151 51.5862 192.006 51.6076C193.499 55.6111 194.86 59.6628 197.134 63.0305Z" fill="#FDF5E5"/>
<path d="M66.6282 195.181C66.3841 193.834 66.3117 192.649 66.9877 191.63C67.1452 191.393 67.3335 191.136 67.5497 191.027C68.7696 190.407 69.5809 189.311 69.8 187.646C69.9759 186.31 70.0511 184.944 70.0932 183.588C70.1316 182.338 70.0076 182.236 69.0227 182.219C68.896 182.217 68.7687 182.227 68.5932 182.233C68.861 184.379 67.9059 185.86 66.9858 187.38C66.4583 188.252 65.9191 189.143 65.5335 190.122C64.6995 192.241 65.0113 193.61 66.6282 195.181Z" fill="#FDF5E5"/>
<path d="M157.041 134.245C156.599 138.023 157.22 141.135 159.196 143.743C159.732 144.45 160.158 145.296 160.64 146.089C161.148 145.157 161.421 144.143 161.121 142.914C160.85 141.805 160.744 140.626 160.444 139.532C159.829 137.289 158.601 135.676 157.041 134.245Z" fill="#FDF5E5"/>
<path d="M136.957 156.673C136.028 158.048 135.194 159.493 134.192 160.71C133.206 161.908 132.05 162.873 130.969 163.94C130.993 164.051 131.018 164.163 131.043 164.275C131.976 164.299 132.91 164.303 133.842 164.353C134.758 164.402 135.674 164.496 136.615 164.572C137.567 162.142 138.259 159.593 136.957 156.673Z" fill="#FDF5E5"/>
<path d="M163.252 152.748C163.41 150.666 163.643 148.588 163.703 146.502C163.756 144.674 164.617 143.586 165.536 142.483C165.677 142.314 165.822 142.153 166.107 141.825C165.106 141.747 164.329 141.031 163.394 141.432C162.833 141.672 162.503 142.149 162.287 142.833C161.98 143.808 161.632 144.762 161.321 145.734C160.918 146.996 160.821 148.324 161.334 149.523C161.836 150.694 162.517 151.737 163.12 152.837C163.164 152.807 163.208 152.777 163.252 152.748Z" fill="#FDF5E5"/>
<path d="M136.794 167.896C136.889 168.276 136.993 168.911 137.198 169.484C137.948 171.573 138.146 173.791 138.183 176.05C138.193 176.629 138.139 177.21 138.143 177.79C138.144 177.964 138.204 178.215 138.302 178.287C138.395 178.356 138.59 178.28 138.707 178.194C138.851 178.086 138.989 177.926 139.083 177.747C139.904 176.177 140.677 174.56 140.806 172.622C140.841 172.098 140.675 171.489 140.469 171.014C140.126 170.221 139.662 169.517 139.275 168.753C138.81 167.838 138.224 167.137 137.381 166.879C136.831 166.711 136.665 166.937 136.794 167.896Z" fill="#FDF5E5"/>
<path d="M194.456 67.9213C193.179 67.6279 191.907 67.2777 190.621 67.0568C189.423 66.8512 188.335 66.3277 187.316 65.5218C186.635 64.9849 185.901 64.747 184.973 64.8251C185.165 65.9873 185.359 67.1678 186.112 67.8023C188.198 69.5564 190.432 70.7382 192.975 69.5662C193.534 69.3087 194.018 68.7834 194.537 68.3819C194.511 68.2282 194.484 68.0751 194.456 67.9213Z" fill="#FDF5E5"/>
<path d="M69.9688 200.887C69.4418 200.459 68.9532 199.893 68.3808 199.628C65.9082 198.483 63.349 198.38 60.7874 198.949C59.6762 199.195 58.8323 199.034 58.1445 197.762C57.7443 197.023 57.1236 196.522 56.2489 196.286C56.8067 197.097 57.2783 197.746 57.7107 198.435C57.8422 198.645 57.8658 198.967 57.9387 199.238C57.7268 199.299 57.5125 199.42 57.3029 199.408C56.4141 199.358 55.774 200.015 55.0881 200.549C55.0947 200.622 55.1009 200.695 55.1075 200.768C55.4717 200.765 55.8355 200.766 56.1997 200.756C57.8043 200.71 58.2864 201.568 57.7163 203.521C57.4822 204.323 57.179 205.092 56.907 205.875C56.9533 205.933 56.9992 205.991 57.0456 206.049C57.4401 205.489 57.89 204.977 58.2131 204.356C58.5083 203.787 58.6875 203.11 58.881 202.463C59.3512 200.888 60.2297 200.016 61.5135 199.739C63.7061 199.266 65.7984 199.932 67.8926 200.608C68.5341 200.815 69.1722 201.038 69.8118 201.253C69.8643 201.132 69.9163 201.009 69.9688 200.887Z" fill="#FDF5E5"/>
<path d="M149.622 142.249C149.395 141.966 149.182 141.661 148.938 141.406C148.047 140.475 147.358 139.32 146.962 137.958C146.706 137.076 146.647 136.079 146.593 135.124C146.53 134.021 145.671 132.683 144.827 132.684C144.581 132.684 144.236 133.048 144.114 133.361C143.928 133.842 143.797 134.427 143.815 134.959C143.913 137.909 144.957 140.991 147.491 141.848C148.168 142.078 148.849 142.29 149.528 142.51C149.559 142.423 149.59 142.335 149.622 142.249Z" fill="#FDF5E5"/>
<path d="M61.9608 216.587C62.5739 215.641 63.1273 214.682 63.2243 213.331C63.2664 212.744 63.5786 212.081 63.9201 211.656C66.2315 208.784 69.1417 208.076 72.2052 208.004C74.0605 207.96 75.9001 208.117 77.71 209.023C77.6703 208.194 77.4181 207.775 76.8699 207.546C75.2029 206.851 73.5164 206.532 71.777 206.953C69.5073 207.504 67.2466 208.125 65.1775 209.504C64.3823 210.034 63.6671 210.771 62.9353 211.45C62.5511 211.805 62.3028 212.384 61.6807 212.203C61.3307 212.1 60.1504 213.862 60.1788 214.328C60.1873 214.469 60.2895 214.62 60.378 214.727C60.8789 215.329 61.3889 215.918 61.9608 216.587Z" fill="#FDF5E5"/>
<path d="M73.5282 234.399C74.8712 234.37 76.2653 232.286 76.1589 230.387C76.0652 228.714 75.4956 227.291 74.6456 226.06C73.7761 224.802 72.6299 224.084 71.4232 223.533C70.9321 223.309 70.4652 223.348 70.3957 224.192C73.5784 226.537 74.3353 230.064 73.5282 234.399Z" fill="#FDF5E5"/>
<path d="M271.726 117.286C271.237 116.826 270.794 116.398 270.34 115.99C270.243 115.903 270.105 115.841 269.989 115.849C268.403 115.958 266.861 116.274 265.527 117.509C264.709 118.266 264.643 118.815 265.255 119.858C265.41 120.122 265.581 120.376 265.766 120.604C266.563 121.588 266.849 121.632 267.757 120.874C268.804 120 269.847 119.118 270.878 118.214C271.192 117.939 271.461 117.58 271.726 117.286Z" fill="#FDF5E5"/>
<path d="M78.2759 210.139C78.055 210.023 77.8294 209.795 77.6137 209.81C75.0455 209.985 72.7067 210.96 70.7649 213.228C70.5113 213.524 70.2544 213.849 70.0841 214.225C69.6328 215.223 69.1432 216.141 68.3906 216.835C68.1215 217.083 67.9507 217.664 67.9015 218.122C67.7676 219.358 67.6995 220.61 67.6498 221.857C67.5855 223.459 68.4474 224.4 69.666 224.072C69.8145 224.031 70.0208 223.784 70.0416 223.602C70.2984 221.344 70.4867 219.09 69.5482 216.967C69.4588 216.766 69.5037 216.385 69.5879 216.148C70.0307 214.902 70.7261 213.91 71.6239 213.199C72.9163 212.176 74.0488 210.727 75.6557 210.5C76.5067 210.381 77.3644 210.344 78.2192 210.269C78.2386 210.226 78.257 210.183 78.2759 210.139Z" fill="#FDF5E5"/>
<path d="M133.595 129.433C133.945 129.649 134.279 129.942 134.648 130.067C136.346 130.638 138.034 130.425 139.765 130.154C142.035 129.799 144.1 128.78 146.17 127.676C146.283 127.616 146.391 127.539 146.475 127.315C146.308 127.352 146.138 127.377 145.973 127.428C143.717 128.134 141.435 128.447 139.117 128.14C138.713 128.087 138.285 128.033 137.921 127.824C137.325 127.48 136.805 127.645 136.245 127.93C135.388 128.366 134.512 128.743 133.644 129.145C133.628 129.242 133.612 129.337 133.595 129.433Z" fill="#FDF5E5"/>
<path d="M74.6163 202.191C73.804 201.594 73.0822 201.156 72.4393 200.572C71.2851 199.525 70.5556 198.158 70.7411 196.207C70.8035 195.548 70.7737 194.876 70.8262 194.214C70.8669 193.704 70.6999 193.553 70.3347 193.479C68.7561 193.161 68.5343 193.48 68.4874 195.564C68.4283 198.185 69.5036 199.966 70.9653 201.44C72.0051 202.49 73.2809 202.271 74.6163 202.191Z" fill="#FDF5E5"/>
<path d="M173.994 74.7357C173.523 74.438 173.072 73.9664 172.577 73.8724C170.344 73.4478 168.103 73.05 165.854 72.8023C164.477 72.6504 163.23 73.3423 162.151 74.463C161.91 74.7132 161.718 75.0396 161.371 75.5093C162.18 75.2915 162.781 75.0158 163.387 74.9889C164.996 74.9175 166.608 74.9615 168.217 74.9462C170.125 74.9279 172.032 74.895 173.94 74.8687C173.958 74.8242 173.976 74.7797 173.994 74.7357Z" fill="#FDF5E5"/>
<path d="M165.002 92.1552C167.383 92.2058 169.555 91.855 171.636 90.8209C172.48 90.4017 173.317 89.9594 174.154 89.5201C174.272 89.4585 174.409 89.3841 174.481 89.2608C175 88.367 175.505 87.4598 175.871 86.8101C172.297 88.0364 168.634 89.7989 165.002 92.1552Z" fill="#FDF5E5"/>
<path d="M57.003 186.262C58.1833 185.651 59.1199 186.19 60.0457 187.476C59.7988 185.003 61.1498 183.799 62.0699 182.099C61.4956 181.741 60.9776 181.392 60.4412 181.1C60.3087 181.028 60.0968 181.092 59.9535 181.179C59.2576 181.603 58.5712 182.055 57.8834 182.501C56.9681 183.093 56.6175 184.481 57.003 186.262Z" fill="#FDF5E5"/>
<path d="M44.3878 196.996C45.7856 196.606 47.2247 196.163 48.6765 195.809C50.7938 195.292 52.7769 195.84 54.67 197.139C55.3569 197.61 56.1161 197.906 56.8692 198.191C56.0153 196.497 53.5593 194.297 50.7191 193.852C48.4712 193.498 46.314 195.096 44.3878 196.996Z" fill="#FDF5E5"/>
<path d="M165.146 106.602C168.082 102.381 171.635 102.114 175.498 104.009C175.536 103.932 175.574 103.856 175.611 103.78C175.337 103.485 175.095 103.1 174.782 102.909C173.062 101.858 171.252 101.352 169.336 101.494C167.451 101.633 165.985 102.793 164.774 104.561C164.27 105.297 164.332 105.567 165.146 106.602Z" fill="#FDF5E5"/>
<path d="M54.0581 188.864C53.6679 189.894 53.5695 191.037 53.7284 192.211C53.7582 192.433 53.9418 192.688 54.1069 192.799C55.1187 193.484 56.0033 194.336 56.5667 195.657C56.5975 195.73 56.6292 195.833 56.6788 195.856C57.7124 196.334 58.4357 197.324 59.1652 198.314C59.2697 198.456 59.4812 198.554 59.6335 198.537C60.4183 198.448 61.1998 198.315 62.004 198.002C61.7797 197.918 61.5574 197.825 61.3313 197.75C59.5469 197.155 58.2801 195.661 57.1826 193.843C56.6552 192.97 56.052 192.174 55.5099 191.314C55.0123 190.525 54.5501 189.698 54.0581 188.864Z" fill="#FDF5E5"/>
<path d="M218.787 82.9586C216.872 82.6108 215.425 81.1393 213.795 80.1906C212.1 79.204 211.187 77.1956 209.878 75.7197C209.834 75.7844 209.79 75.8497 209.746 75.9143C210.222 77.1095 210.588 78.4072 211.195 79.4798C212.601 81.9672 214.467 83.6297 216.907 83.9787C217.617 84.08 218.266 83.8408 218.787 82.9586Z" fill="#FDF5E5"/>
<path d="M210.14 95.4792C209.378 95.1247 208.723 94.827 208.073 94.514C207.872 94.4176 207.671 94.3041 207.491 94.1571C205.782 92.7575 203.849 92.4049 201.897 92.2676C201.013 92.2054 200.102 92.4275 199.741 93.7734C199.714 93.8734 199.709 93.9838 199.673 94.2352C200.59 93.5202 201.476 93.8008 202.361 94.0412C202.487 94.0754 202.617 94.1168 202.744 94.112C204.562 94.043 206.101 95.1723 207.699 96.0356C208.284 96.3516 208.82 96.7769 209.367 95.9288C209.501 95.7202 209.787 95.675 210.14 95.4792Z" fill="#FDF5E5"/>
<path d="M307.884 96.0232C307.753 95.8688 307.721 95.7999 307.694 95.8036C306.342 95.9701 305.061 95.418 303.747 95.2002C302.631 95.0153 301.479 95.1855 300.343 95.1965C299.947 95.2002 299.84 95.4778 299.854 95.9518C299.892 97.1629 300.185 97.701 301.113 97.906C301.632 98.0207 302.196 98.064 302.708 97.9298C304.077 97.5722 305.432 97.1208 306.784 96.6626C307.153 96.5375 307.489 96.2575 307.884 96.0232Z" fill="#FDF5E5"/>
<path d="M152.196 189.385C152.68 188.531 153.144 187.755 153.57 186.944C153.746 186.61 153.896 186.22 153.96 185.828C154.138 184.724 154.265 183.606 154.304 182.387C153.034 184.8 150.679 185.191 149.17 187.116C150.259 187.931 151.277 188.695 152.196 189.385Z" fill="#FDF5E5"/>
<path d="M56.1597 195.667C55.584 194.484 54.8305 193.675 53.8792 193.146C53.5755 192.978 53.2817 192.778 52.9823 192.594C51.442 191.651 49.8123 191.408 48.1316 191.574C48.0034 191.586 47.8705 191.601 47.7498 191.654C47.3563 191.827 46.8307 191.876 46.9551 192.68C47.071 193.433 47.6538 193.893 48.1817 193.715C50.486 192.937 52.6081 193.59 54.611 195.107C55.0703 195.456 55.4861 195.926 56.1597 195.667Z" fill="#FDF5E5"/>
<path d="M140.968 112.514C141.122 111.685 141.29 110.783 141.457 109.882C139.451 109.153 135.938 113.841 136.119 117.124C136.844 116.132 137.451 115.043 138.246 114.287C139.042 113.531 140.027 113.107 140.968 112.514Z" fill="#FDF5E5"/>
<path d="M209.575 97.0713C209.716 98.6661 211.155 100.349 212.301 100.146C212.643 100.085 213.057 99.4733 213.191 98.9986C213.352 98.4276 213.304 97.7247 213.246 97.0945C213.177 96.3435 212.774 96.072 212.184 95.9683C211.467 95.8414 210.805 95.5131 210.08 96.0799C209.707 96.3703 209.499 96.5954 209.575 97.0713Z" fill="#FDF5E5"/>
<path d="M223.823 94.7073C225.331 94.3236 226.194 95.7909 227.255 96.6474C228.467 97.6267 228.166 99.6223 228.893 100.944C229.573 100.422 230.21 98.8713 230.044 97.8725C229.981 97.4894 229.734 97.1069 229.496 96.8317C229.036 96.2997 228.494 95.8854 228.039 95.3485C227.257 94.4279 224.78 93.9709 223.823 94.7073Z" fill="#FDF5E5"/>
<path d="M261.234 77.6623C260.767 77.3274 260.388 76.8838 259.965 76.7929C259.252 76.6404 258.506 76.6434 257.782 76.7124C257.248 76.763 256.917 77.2493 257.024 77.9875C257.114 78.6061 257.281 79.2077 257.43 79.8105C257.582 80.4291 257.754 81.0398 257.9 81.5895C258.907 80.4017 259.992 79.1247 261.234 77.6623Z" fill="#FDF5E5"/>
<path d="M160.262 146.643C159.53 145.04 158.784 143.556 157.563 142.628C156.914 142.136 156.191 142.038 155.462 142.512C155.999 143.616 156.498 144.685 157.031 145.724C157.648 146.927 158.258 147.209 159.357 146.881C159.625 146.801 159.896 146.739 160.262 146.643Z" fill="#FDF5E5"/>
<path d="M216.737 98.7917C216.526 99.5794 216.336 100.139 216.238 100.725C216.194 100.992 216.258 101.421 216.403 101.587C217.334 102.648 218.296 103.663 219.258 104.679C219.79 105.241 220.329 105.794 220.886 106.314C221.16 106.57 221.481 106.742 221.933 107.059C221.817 106.758 221.798 106.62 221.734 106.554C221.091 105.887 220.731 105.005 220.437 104.025C220.301 103.571 219.988 103.109 219.659 102.866C218.693 102.151 217.962 101.185 217.423 99.9412C217.269 99.5873 217.039 99.2902 216.737 98.7917Z" fill="#FDF5E5"/>
<path d="M136.868 188.283C138.622 187.66 140.373 187.025 142.131 186.422C142.562 186.274 143.014 186.159 143.458 186.147C144.419 186.121 144.42 186.152 144.45 184.797C141.876 184.816 139.373 185.138 137.241 187.267C137.027 187.482 136.891 187.828 136.718 188.113C136.769 188.169 136.818 188.226 136.868 188.283Z" fill="#FDF5E5"/>
<path d="M209.138 96.9517C208.618 97.9864 208.447 98.7655 208.751 99.8332C209.16 101.273 209.778 102.364 210.827 103.06C210.923 103.123 211.006 103.219 211.104 103.273C211.523 103.502 212.172 102.691 212.444 101.593C212.59 101.003 212.455 100.725 211.943 100.558C210.539 100.102 209.402 99.1974 209.138 96.9517Z" fill="#FDF5E5"/>
<path d="M219.528 94.7884C219.751 95.1679 220.047 95.7176 220.383 96.2234C220.562 96.4925 220.82 96.6712 221.026 96.9128C221.35 97.2941 221.636 97.8536 222.156 97.5461C222.839 97.1416 223.496 95.8329 223.37 95.1679C223.33 94.9562 223.172 94.7518 223.029 94.6103C222.862 94.445 222.646 94.362 222.459 94.2271C221.446 93.4969 220.433 92.7422 219.528 94.7884Z" fill="#FDF5E5"/>
<path d="M62.7214 198.065C63.7872 198.166 64.7745 198.193 65.7452 198.369C66.6974 198.541 67.6331 198.864 68.5655 199.118C68.0149 197.043 67.4586 194.949 66.88 192.769C66.8753 193.241 66.8365 193.69 66.8748 194.129C66.9273 194.735 67.0726 195.33 67.1085 195.936C67.1274 196.256 66.9988 196.59 66.9363 196.918C66.7069 196.815 66.4505 196.764 66.2537 196.597C65.6856 196.113 65.142 195.582 64.5886 195.069C64.5507 195.124 64.5134 195.179 64.476 195.234C64.6865 195.513 64.9221 195.768 65.0976 196.079C65.2111 196.28 65.3128 196.587 65.274 196.803C65.2475 196.95 64.9774 197.059 64.8024 197.122C64.2272 197.326 63.6439 197.491 63.0691 197.696C62.9618 197.733 62.8804 197.891 62.7214 198.065Z" fill="#FDF5E5"/>
<path d="M213.145 100.027C214.095 100.659 215.428 100.395 216.04 99.4323C216.206 99.1706 216.287 98.691 216.238 98.3524C216.055 97.0956 215.329 96.3483 214.506 95.8431C214.239 95.6796 213.791 96.0072 213.336 96.1353C213.985 97.5538 213.984 98.8515 213.145 100.027Z" fill="#FDF5E5"/>
<path d="M238.509 134.583C239.674 133.051 241.15 132.734 242.573 132.228C243.255 131.986 243.942 131.681 244.557 131.243C244.996 130.931 245.318 130.348 245.795 129.759C245.349 129.539 245.095 129.414 244.806 129.271C244.042 131.003 242.701 131.063 241.393 131.228C240.016 131.401 238.844 132.716 238.509 134.583Z" fill="#FDF5E5"/>
<path d="M216.067 91.4493C216.815 90.1297 216.768 88.7539 215.976 87.5093C215 85.9761 213.39 85.4026 212.094 86.2037C214.204 86.995 215.479 88.782 216.067 91.4493Z" fill="#FDF5E5"/>
<path d="M208.547 85.1335C208.097 84.4941 207.767 83.9835 207.404 83.5167C205.785 81.4418 204.156 79.3821 202.534 77.3114C202.122 76.7855 201.676 76.3962 200.932 76.5402C201.133 76.8093 201.269 76.9966 201.409 77.1784C203.214 79.5212 205.028 81.853 206.82 84.2129C207.267 84.801 207.749 85.1604 208.547 85.1335Z" fill="#FDF5E5"/>
<path d="M215.743 100.444C214.816 101.033 213.886 101.156 213.044 100.606C212.694 101.66 212.358 102.671 212.025 103.677C213.328 104.247 215.559 102.389 215.743 100.444Z" fill="#FDF5E5"/>
<path d="M207.587 88.2122C206.84 89.5495 206.681 91.0357 206.83 92.5036C206.903 93.2278 207.542 93.6707 207.996 93.8336C208.192 92.7891 208.394 91.8014 208.554 90.802C208.592 90.5635 208.533 90.2554 208.44 90.0339C208.199 89.4525 207.914 88.901 207.587 88.2122Z" fill="#FDF5E5"/>
<path d="M157.592 211.548C156.454 210.326 155.431 209.227 154.419 208.14C154.127 208.566 153.738 209.131 153.27 209.813C153.781 210.187 154.273 210.617 154.809 210.921C155.335 211.22 155.896 211.45 156.46 211.598C156.811 211.689 157.194 211.573 157.592 211.548Z" fill="#FDF5E5"/>
<path d="M150.248 142.371C150.663 143.227 150.981 144.207 151.517 144.911C152.29 145.928 153.211 146.764 154.09 147.64C154.588 148.135 155.116 148.14 155.653 147.47C153.625 146.182 151.882 144.415 150.412 142.195C150.357 142.253 150.303 142.312 150.248 142.371Z" fill="#FDF5E5"/>
<path d="M300.068 94.7255C301.267 94.7212 302.469 94.6364 303.662 94.734C304.844 94.831 305.946 95.7828 307.193 95.3417C307.187 95.2935 307.19 95.2136 307.174 95.2068C305.908 94.6785 304.652 94.1087 303.372 93.648C302.407 93.3009 301.447 93.551 300.531 94.0275C300.334 94.1306 300.169 94.3393 299.988 94.4997C300.015 94.5754 300.042 94.6504 300.068 94.7255Z" fill="#FDF5E5"/>
<path d="M155.361 211.885C154.572 211.284 153.779 210.653 152.962 210.08C152.813 209.976 152.565 210.082 152.367 210.126C152.052 210.196 151.742 210.295 151.429 210.381C151.82 212.373 153.692 213.041 155.361 211.885Z" fill="#FDF5E5"/>
<path d="M293.266 97.8627C295.386 97.4228 297.346 96.2184 299.55 96.9573C299.536 96.4118 299.52 95.7975 299.495 94.8616C298.827 96.2953 297.839 95.8969 296.964 96.0903C295.993 96.3051 295.029 96.6095 294.088 96.9817C293.774 97.1061 293.538 97.5601 293.266 97.8627Z" fill="#FDF5E5"/>
<path d="M221.113 103.785C221.492 101.625 221.491 99.6491 220.88 97.6309C220.684 98.1928 220.376 98.7364 220.318 99.3215C220.212 100.382 220.173 101.479 220.274 102.535C220.315 102.966 220.791 103.328 221.113 103.785Z" fill="#FDF5E5"/>
<path d="M210.914 86.0158C209.832 84.9597 209.126 85.4185 208.22 86.5606C207.713 87.1994 207.981 88.4959 208.744 89.4672C209.311 87.2312 209.311 87.2312 210.914 86.0158Z" fill="#FDF5E5"/>
<path d="M46.3347 205.612C46.8229 204.518 47.2623 203.533 47.7042 202.543C47.0665 202.211 46.3252 201.826 45.4307 201.361C45.4449 201.778 45.4122 202.104 45.4747 202.397C45.6242 203.101 45.8134 203.791 45.9969 204.483C46.0948 204.854 46.215 205.214 46.3347 205.612Z" fill="#FDF5E5"/>
<path d="M79.6026 209.918C78.4853 208.462 78.1939 206.678 78.3741 204.717C78.4919 203.438 78.1868 202.629 77.2473 202.007C78.1111 202.968 77.964 204.158 77.7903 205.372C77.5898 206.776 77.8902 208.097 78.4176 209.283C78.6021 209.698 79.1433 209.85 79.5217 210.122C79.5487 210.053 79.5756 209.986 79.6026 209.918Z" fill="#FDF5E5"/>
<path d="M77.298 207.288C77.4143 206.321 77.1802 205.546 76.6555 205.078C76.34 204.797 75.7899 204.686 75.4398 204.845C75.2463 204.933 75.2236 205.733 75.1806 206.221C75.1692 206.348 75.3533 206.585 75.4805 206.637C76.068 206.876 76.6669 207.067 77.298 207.288Z" fill="#FDF5E5"/>
<path d="M219.735 93.5984C219.023 92.1958 216.936 91.2465 216.486 91.9737C217.541 92.5015 218.625 93.0433 219.735 93.5984Z" fill="#FDF5E5"/>
<path d="M230.457 140.084C229.744 137.28 228.53 135.95 226.324 135.892C223.754 135.824 221.204 135.645 218.682 134.965C218.253 134.85 217.79 134.947 217.342 134.945C217.32 135.017 217.298 135.089 217.275 135.16C217.493 135.34 217.71 135.52 217.929 135.699C219.231 136.762 220.578 137.58 222.16 137.807C223.192 137.955 224.174 138.612 225.201 138.901C226.86 139.368 228.538 139.721 230.209 140.117C230.285 140.136 230.369 140.097 230.457 140.084Z" fill="#FDF5E5"/>
<path d="M18.1988 221.871C16.7073 219.633 15.1911 219.004 13.1357 220.04C10.7416 221.248 8.33286 222.341 5.80109 222.959C5.37062 223.064 4.97137 223.383 4.55792 223.603C4.55839 223.68 4.55933 223.757 4.5598 223.834C4.8143 223.892 5.06881 223.952 5.32331 224.008C6.84132 224.348 8.32908 224.439 9.8575 223.866C10.8547 223.493 11.9564 223.614 12.9915 223.374C14.6627 222.986 16.3179 222.484 17.9788 222.024C18.0545 222.004 18.1207 221.927 18.1988 221.871Z" fill="#FDF5E5"/>
<path d="M279.075 154.96C278.668 154.672 278.332 154.527 278.096 154.244C277.77 153.855 277.537 153.836 277.226 154.245C276.94 154.619 276.631 154.98 276.29 155.264C275.254 156.129 274.779 157.373 274.56 158.91C274.372 160.237 274.113 161.578 273.709 162.817C273.169 164.471 273.093 166.065 273.492 167.768C273.994 169.91 274.761 171.841 275.976 173.451C276.697 174.406 277.263 174.469 277.939 173.457C278.358 172.831 278.661 172.01 278.849 171.21C279.36 169.037 279.567 166.813 279.236 164.541C279.048 163.253 279.154 161.994 279.636 160.811C280.203 159.419 280.137 158.043 279.596 156.655C279.366 156.063 279.215 155.422 279.075 154.96Z" fill="#FDF5E5"/>
<path d="M165.007 217.667C164.742 217.176 164.491 216.854 164.377 216.465C164.22 215.929 164.018 215.779 163.597 215.966C163.213 216.138 162.811 216.283 162.408 216.343C161.182 216.523 160.327 217.365 159.602 218.616C158.976 219.697 158.282 220.749 157.492 221.628C156.438 222.8 155.821 224.183 155.591 225.938C155.302 228.144 155.323 230.313 155.856 232.452C156.173 233.722 156.658 234.103 157.613 233.584C158.203 233.264 158.758 232.702 159.202 232.094C160.409 230.44 161.361 228.567 161.848 226.341C162.124 225.08 162.653 224.013 163.493 223.23C164.481 222.309 164.896 221.038 164.89 219.484C164.887 218.823 164.973 218.161 165.007 217.667Z" fill="#FDF5E5"/>
<path d="M166.325 216.122C166.079 216.474 165.731 216.777 165.61 217.19C165.4 217.904 165.236 218.682 165.222 219.439C165.19 221.167 164.752 222.581 163.643 223.603C162.896 224.291 162.397 225.224 162.146 226.347C161.686 228.411 160.925 230.253 159.822 231.862C159.724 232.005 159.656 232.181 159.575 232.342C159.619 232.389 159.66 232.455 159.678 232.447C161.465 231.568 162.921 230.126 163.565 227.774C164.025 226.094 164.665 224.586 165.403 223.119C166.181 221.571 166.682 219.906 166.708 218.047C166.716 217.453 166.63 216.857 166.588 216.263C166.5 216.215 166.413 216.169 166.325 216.122Z" fill="#FDF5E5"/>
<path d="M95.5618 189.211C95.5608 189.378 95.5414 189.466 95.5627 189.532C96.7865 193.276 98.235 196.768 101.262 198.666C102.305 199.32 103.284 200.154 104.267 200.955C105.558 202.007 106.943 202.755 108.421 203.211C109.639 203.588 110.414 202.804 110.403 201.192C110.388 199.007 109.968 196.925 109.086 195.073C107.934 192.652 106.067 192.005 104 192.047C103.549 192.056 103.091 192.116 102.65 192.236C101.129 192.651 99.8467 192.128 98.7426 190.731C98.041 189.844 97.1678 189.387 96.1957 189.245C95.9918 189.215 95.7841 189.222 95.5618 189.211Z" fill="#FDF5E5"/>
<path d="M41.0929 249.263C41.5815 248.981 42.0002 248.8 42.3682 248.512C42.9122 248.085 43.4567 247.964 44.0934 248.063C44.4572 248.119 44.8872 247.936 45.2231 247.704C45.7893 247.315 46.2903 246.771 46.8437 246.345C47.9332 245.508 48.6162 244.26 49.0671 242.776C49.3102 241.975 49.5037 241.149 49.7355 240.342C49.9006 239.767 49.7714 239.413 49.2918 239.54C48.5188 239.746 47.6985 239.899 47.0145 240.361C46.1105 240.97 45.2316 241.74 44.4993 242.651C43.496 243.899 42.6184 245.321 41.7315 246.716C41.3176 247.368 40.9751 248.116 41.0929 249.263Z" fill="#FDF5E5"/>
<path d="M221.321 211.331C221.638 211.302 221.898 211.32 222.142 211.248C223.709 210.787 225.283 210.675 226.887 210.86C227.335 210.912 227.847 210.623 228.264 210.333C228.626 210.081 228.668 209.643 228.22 209.317C226.924 208.37 225.612 208.119 224.217 208.997C223.504 209.445 222.747 209.777 222.011 210.164C221.648 210.354 221.294 210.554 221.321 211.331Z" fill="#FDF5E5"/>
<path d="M125.594 95.2783C125.911 95.249 126.171 95.2667 126.415 95.1947C127.982 94.7341 129.556 94.6218 131.16 94.8073C131.608 94.8586 132.12 94.5706 132.537 94.2808C132.899 94.0288 132.941 93.5908 132.493 93.2644C131.197 92.3175 129.885 92.0661 128.49 92.9441C127.777 93.3925 127.02 93.725 126.284 94.1112C125.922 94.3009 125.567 94.5004 125.594 95.2783Z" fill="#FDF5E5"/>
<path d="M3.11197 258.55C2.98283 258.926 2.84801 259.213 2.78179 259.524C2.35888 261.523 1.69376 263.366 0.811053 265.105C0.565067 265.589 0.520607 266.308 0.522499 266.918C0.523918 267.449 0.803964 267.703 1.23822 267.348C2.49654 266.319 3.287 264.945 3.34376 262.945C3.37309 261.922 3.50224 260.905 3.58502 259.885C3.62618 259.384 3.65646 258.886 3.11197 258.55Z" fill="#FDF5E5"/>
</svg>
